<?xml version="1.0"?>
<svg xmlns="http://www.w3.org/2000/svg" id="Capa_1" enable-background="new 0 0 512 512" height="512px" viewBox="0 0 512 512" width="512px" class=""><g><g><path d="m109.25 331.333h-101.75c-4.142 0-7.5 3.358-7.5 7.5v165.667c0 4.142 3.358 7.5 7.5 7.5h101.75c4.142 0 7.5-3.358 7.5-7.5v-165.667c0-4.142-3.358-7.5-7.5-7.5zm-7.5 165.667h-86.75v-150.667h86.75z" data-original="#000000" class="active-path" data-old_color="#000000" fill="#FFFFFF"/><path d="m241 165.667h-101.75c-4.142 0-7.5 3.358-7.5 7.5v331.333c0 4.142 3.358 7.5 7.5 7.5h101.75c4.142 0 7.5-3.358 7.5-7.5v-150.667c0-4.142-3.358-7.5-7.5-7.5s-7.5 3.358-7.5 7.5v143.167h-86.75v-316.333h86.75v143.167c0 4.142 3.358 7.5 7.5 7.5s7.5-3.358 7.5-7.5v-150.667c0-4.143-3.358-7.5-7.5-7.5z" data-original="#000000" class="active-path" data-old_color="#000000" fill="#FFFFFF"/><path d="m504.5 165.667h-101.75c-4.142 0-7.5 3.358-7.5 7.5v331.333c0 4.142 3.358 7.5 7.5 7.5h101.75c4.142 0 7.5-3.358 7.5-7.5v-331.333c0-4.143-3.358-7.5-7.5-7.5zm-7.5 331.333h-86.75v-316.333h86.75z" data-original="#000000" class="active-path" data-old_color="#000000" fill="#FFFFFF"/><path d="m372.75 0h-101.75c-4.142 0-7.5 3.358-7.5 7.5v497c0 4.142 3.358 7.5 7.5 7.5h101.75c4.142 0 7.5-3.358 7.5-7.5v-497c0-4.142-3.358-7.5-7.5-7.5zm-7.5 497h-86.75v-482h86.75z" data-original="#000000" class="active-path" data-old_color="#000000" fill="#FFFFFF"/></g></g> </svg>
