<svg enable-background="new 0 0 64 64" height="512" viewBox="0 0 64 64" width="512" xmlns="http://www.w3.org/2000/svg"><path d="m42.227 33.572-3.883 3.825-2.608 4.787-5.392.807-4.921 2.342-4.835-2.52-5.361-.993-2.432-4.879-3.749-3.956.895-5.379-.701-5.405 3.882-3.823 2.608-4.788 5.392-.807 4.922-2.344 4.835 2.519 5.361.995 2.431 4.878 3.749 3.959-.895 5.379z" fill="#f9dd9d"/><path d="m22.588 42.813-5.361-.993-2.432-4.879-3.749-3.956.895-5.379-.701-5.405 3.882-3.823 2.608-4.788 5.392-.807 3.877-1.847-.955-.497-4.922 2.344-5.392.807-2.608 4.788-3.882 3.823.701 5.405-.895 5.379 3.749 3.956 2.432 4.879 5.361.993 4.835 2.52 1.046-.498z" fill="#ffeecf"/><g fill="#63312d"><path d="m14.257 46.956h2.661v1h-2.661z" transform="matrix(.46 -.888 .888 .46 -33.719 39.463)"/><path d="m34.549 7.816h2.661v.999h-2.661z" transform="matrix(.461 -.887 .887 .461 11.953 36.316)"/><path d="m5.665 16.407h1v2.664h-1z" transform="matrix(.461 -.887 .887 .461 -12.419 15.029)"/><path d="m44.804 36.701h1v2.661h-1z" transform="matrix(.461 -.888 .888 .461 -9.318 60.732)"/><path d="m5.88 39.337h2.659v1h-2.659z" transform="matrix(.84 -.542 .542 .84 -20.449 10.274)"/><path d="m42.929 15.435h2.661v1h-2.661z" transform="matrix(.84 -.543 .543 .84 -1.56 26.583)"/><path d="m13.282 8.031h1v2.661h-1z" transform="matrix(.84 -.543 .543 .84 -2.875 8.978)"/><path d="m37.184 45.082h1v2.66h-1z" transform="matrix(.84 -.542 .542 .84 -19.138 27.828)"/><path d="m2.385 28.443h2.657v1h-2.657z" transform="matrix(.999 -.049 .049 .999 -1.409 .216)"/><path d="m46.424 26.329h2.661v1h-2.661z" transform="matrix(.999 -.047 .047 .999 -1.205 2.268)"/><path d="m24.177 4.537h1v2.657h-1z" transform="matrix(.999 -.049 .049 .999 -.256 1.204)"/><path d="m26.292 48.578h1v2.66h-1z" transform="matrix(.999 -.049 .049 .999 -2.405 1.368)"/><path d="m14.257 46.956h2.661v1h-2.661z" transform="matrix(.46 -.888 .888 .46 -33.719 39.463)"/><path d="m34.549 7.816h2.661v.999h-2.661z" transform="matrix(.461 -.887 .887 .461 11.953 36.316)"/><path d="m5.665 16.407h1v2.664h-1z" transform="matrix(.461 -.887 .887 .461 -12.419 15.029)"/><path d="m44.804 36.701h1v2.661h-1z" transform="matrix(.461 -.888 .888 .461 -9.318 60.732)"/><path d="m5.88 39.337h2.659v1h-2.659z" transform="matrix(.84 -.542 .542 .84 -20.449 10.274)"/><path d="m42.929 15.435h2.661v1h-2.661z" transform="matrix(.84 -.543 .543 .84 -1.56 26.583)"/><path d="m13.282 8.031h1v2.661h-1z" transform="matrix(.84 -.543 .543 .84 -2.875 8.978)"/><path d="m37.184 45.082h1v2.66h-1z" transform="matrix(.84 -.542 .542 .84 -19.138 27.828)"/><path d="m2.385 28.443h2.657v1h-2.657z" transform="matrix(.999 -.049 .049 .999 -1.409 .216)"/><path d="m46.424 26.329h2.661v1h-2.661z" transform="matrix(.999 -.047 .047 .999 -1.205 2.268)"/><path d="m24.177 4.537h1v2.657h-1z" transform="matrix(.999 -.049 .049 .999 -.256 1.204)"/><path d="m26.292 48.578h1v2.66h-1z" transform="matrix(.999 -.049 .049 .999 -2.405 1.368)"/><path d="m25.423 45.833c-.08 0-.159-.019-.231-.057l-4.769-2.485-5.287-.98c-.154-.029-.286-.128-.356-.269l-2.399-4.812-3.698-3.902c-.108-.114-.156-.271-.13-.426l.883-5.306-.692-5.332c-.021-.155.033-.311.145-.421l3.829-3.771 2.574-4.723c.075-.138.21-.232.365-.255l5.317-.796 4.855-2.313c.141-.068.307-.064.446.008l4.769 2.484 5.288.981c.154.029.287.128.356.269l2.397 4.813 3.698 3.904c.107.114.155.271.13.426l-.883 5.307.692 5.33c.02.155-.034.311-.146.421l-3.83 3.772-2.571 4.722c-.075.138-.211.232-.365.255l-5.319.796-4.854 2.311c-.067.033-.14.049-.214.049zm-9.859-4.459 5.115.948c.049.009.096.025.14.048l4.615 2.404 4.696-2.235c.044-.021.092-.036.141-.043l5.146-.77 2.488-4.568c.023-.043.054-.083.089-.117l3.706-3.65-.67-5.157c-.006-.049-.005-.098.003-.146l.854-5.134-3.578-3.777c-.034-.036-.063-.077-.084-.121l-2.319-4.656-5.117-.95c-.049-.009-.096-.025-.14-.048l-4.614-2.404-4.698 2.237c-.044.021-.092.036-.141.043l-5.146.771-2.49 4.57c-.023.043-.053.083-.088.117l-3.705 3.648.669 5.159c.006.049.006.098-.002.146l-.854 5.133 3.578 3.775c.034.036.063.076.084.121z"/></g><path d="m37.448 27.652c.129 6.47-5.008 11.82-11.48 11.949-6.47.13-11.821-5.009-11.949-11.48-.131-6.47 5.011-11.822 11.48-11.949 6.471-.131 11.819 5.01 11.949 11.48z" fill="#f9a287"/><path d="m16.019 28.121c-.126-6.233 4.645-11.414 10.778-11.9-.427-.039-.859-.058-1.298-.049-6.469.127-11.611 5.479-11.48 11.949.128 6.471 5.479 11.61 11.949 11.48.237-.005.469-.031.702-.049-5.872-.529-10.532-5.398-10.651-11.431z" fill="#ffc8bb"/><path d="m25.726 40.104c-3.17 0-6.165-1.204-8.458-3.406-2.354-2.261-3.685-5.303-3.75-8.566-.066-3.262 1.143-6.355 3.404-8.709s5.303-3.686 8.566-3.75c3.273-.058 6.356 1.143 8.709 3.404s3.685 5.303 3.75 8.566c.064 3.263-1.144 6.356-3.404 8.709s-5.303 3.685-8.566 3.75c-.083.001-.167.002-.251.002zm.016-23.435c-.078 0-.155.001-.233.002-2.996.059-5.789 1.282-7.865 3.443-2.077 2.161-3.187 5.001-3.125 7.996.06 2.996 1.282 5.79 3.443 7.865 2.161 2.076 5.021 3.188 7.996 3.125 2.997-.06 5.79-1.282 7.866-3.443 2.075-2.161 3.185-5 3.125-7.997-.06-2.996-1.283-5.789-3.443-7.865-2.106-2.02-4.854-3.126-7.764-3.126z" fill="#63312d"/><path d="m52.264 43.767h-2.329c.005-.13.015-.26.015-.392 0-6.247-5.065-11.312-11.313-11.312h-6.137v1.816c-3.069 1.989-5.117 5.42-5.172 9.336-.851-1.129-2.198-1.861-3.72-1.861h-6.038v5.25c-.37-.06-.747-.099-1.134-.099-3.96 0-7.172 3.211-7.172 7.172s3.211 7.172 7.172 7.172h35.828c4.716 0 8.541-3.824 8.541-8.541s-3.826-8.541-8.541-8.541z" fill="#d1d1d1"/><path d="m52.264 61.349h-35.828c-4.23 0-7.672-3.441-7.672-7.672s3.441-7.672 7.672-7.672c.206 0 .416.01.634.03v-4.681c0-.276.224-.5.5-.5h6.039c1.226 0 2.378.424 3.294 1.19.384-3.404 2.232-6.482 5.098-8.434v-1.548c0-.276.224-.5.5-.5h6.136c6.478 0 11.754 5.24 11.812 11.704h1.815c4.985 0 9.041 4.056 9.041 9.041s-4.056 9.042-9.041 9.042zm-35.828-14.344c-3.679 0-6.672 2.993-6.672 6.672s2.993 6.672 6.672 6.672h35.828c4.434 0 8.041-3.607 8.041-8.041s-3.607-8.041-8.041-8.041h-2.329c-.136 0-.266-.055-.36-.153s-.145-.229-.14-.365l.007-.136c.004-.079.008-.157.008-.237 0-5.962-4.851-10.812-10.813-10.812h-5.636v1.316c0 .169-.086.328-.229.419-3.045 1.973-4.894 5.309-4.944 8.924-.003.214-.142.402-.345.468-.202.067-.426-.003-.555-.174-.796-1.056-2.007-1.662-3.321-1.662h-5.537v4.75c0 .146-.064.286-.176.381s-.262.136-.404.113c-.382-.063-.727-.094-1.054-.094z" fill="#63312d"/><path d="m46.264 43.767c-.813 0-1.596.121-2.341.333.015-.24.026-.48.026-.724 0-6.247-5.065-11.312-11.313-11.312-6.193 0-11.222 4.979-11.308 11.152-.851-1.129-2.198-1.861-3.72-1.861-2.575 0-4.662 2.087-4.662 4.662 0 .34.039.67.107.989-.812-.319-1.693-.5-2.618-.5-3.96 0-7.172 3.211-7.172 7.172s3.211 7.172 7.172 7.172h35.828c4.716 0 8.541-3.824 8.541-8.541.001-4.718-3.825-8.542-8.54-8.542z" fill="#f8f3f3"/><path d="m46.264 61.349h-35.828c-4.23 0-7.672-3.441-7.672-7.672s3.441-7.672 7.672-7.672c.683 0 1.358.092 2.017.273-.004-.088-.007-.176-.007-.263 0-2.846 2.316-5.162 5.162-5.162 1.226 0 2.378.424 3.294 1.19.668-5.877 5.705-10.481 11.734-10.481 6.514 0 11.813 5.299 11.813 11.812v.08c.604-.125 1.212-.188 1.814-.188 4.985 0 9.041 4.056 9.041 9.041s-4.055 9.042-9.04 9.042zm-35.828-14.344c-3.679 0-6.672 2.993-6.672 6.672s2.993 6.672 6.672 6.672h35.828c4.434 0 8.041-3.607 8.041-8.041s-3.607-8.041-8.041-8.041c-.731 0-1.473.105-2.204.313-.155.043-.324.011-.45-.091s-.195-.258-.186-.42c.014-.23.025-.46.025-.694 0-5.962-4.851-10.812-10.813-10.812-5.877 0-10.726 4.782-10.808 10.659-.003.214-.142.402-.345.468-.202.067-.426-.003-.555-.174-.796-1.056-2.007-1.662-3.321-1.662-2.295 0-4.162 1.867-4.162 4.162 0 .291.032.588.096.884.039.18-.024.367-.165.486-.14.12-.334.152-.507.084-.784-.308-1.602-.465-2.433-.465z" fill="#63312d"/></svg>