<svg enable-background="new 0 0 64 64" height="512" viewBox="0 0 64 64" width="512" xmlns="http://www.w3.org/2000/svg"><path d="m52.264 14.922h-2.329c.005-.13.015-.26.015-.392 0-6.247-5.065-11.312-11.313-11.312h-6.137v1.816c-3.068 1.989-5.117 5.42-5.172 9.336-.851-1.129-2.197-1.861-3.72-1.861h-6.038v5.25c-.37-.06-.748-.099-1.135-.099-3.96 0-7.172 3.211-7.172 7.172s3.212 7.172 7.172 7.172h35.828c4.716 0 8.541-3.824 8.541-8.541.001-4.717-3.825-8.541-8.54-8.541z" fill="#d1d1d1"/><path d="m52.264 32.504h-35.828c-4.23 0-7.672-3.441-7.672-7.672s3.441-7.672 7.672-7.672c.206 0 .416.01.635.03v-4.681c0-.276.224-.5.5-.5h6.038c1.226 0 2.378.424 3.293 1.19.384-3.403 2.232-6.481 5.098-8.433v-1.548c0-.276.224-.5.5-.5h6.137c6.478 0 11.754 5.24 11.812 11.704h1.815c4.985 0 9.041 4.056 9.041 9.041s-4.056 9.041-9.041 9.041zm-35.828-14.344c-3.679 0-6.672 2.993-6.672 6.672s2.993 6.672 6.672 6.672h35.828c4.434 0 8.041-3.607 8.041-8.041s-3.607-8.041-8.041-8.041h-2.329c-.136 0-.266-.055-.36-.153s-.145-.229-.14-.365l.007-.136c.004-.079.008-.157.008-.237 0-5.962-4.851-10.812-10.813-10.812h-5.637v1.316c0 .169-.086.328-.229.419-3.045 1.974-4.893 5.31-4.943 8.924-.003.214-.142.402-.345.468-.202.067-.425-.003-.555-.174-.796-1.056-2.006-1.662-3.32-1.662h-5.538v4.75c0 .146-.064.286-.176.381s-.262.136-.404.113c-.382-.064-.727-.094-1.054-.094z" fill="#63312d"/><path d="m46.264 14.922c-.813 0-1.596.121-2.341.333.015-.24.026-.48.026-.724 0-6.247-5.065-11.312-11.313-11.312-6.193 0-11.223 4.979-11.309 11.152-.851-1.129-2.197-1.861-3.72-1.861-2.575 0-4.662 2.087-4.662 4.662 0 .34.038.67.107.989-.812-.319-1.692-.5-2.618-.5-3.96 0-7.172 3.211-7.172 7.172s3.212 7.172 7.172 7.172h35.828c4.716 0 8.541-3.824 8.541-8.541.002-4.718-3.824-8.542-8.539-8.542z" fill="#f8f3f3"/><path d="m46.264 32.504h-35.828c-4.23 0-7.672-3.441-7.672-7.672s3.441-7.672 7.672-7.672c.684 0 1.358.092 2.018.273-.005-.087-.007-.175-.007-.262 0-2.846 2.315-5.162 5.162-5.162 1.226 0 2.378.424 3.294 1.19.667-5.877 5.705-10.481 11.734-10.481 6.514 0 11.813 5.299 11.813 11.812v.08c.604-.125 1.212-.188 1.814-.188 4.985 0 9.041 4.056 9.041 9.041s-4.056 9.041-9.041 9.041zm-35.828-14.344c-3.679 0-6.672 2.993-6.672 6.672s2.993 6.672 6.672 6.672h35.828c4.434 0 8.041-3.607 8.041-8.041s-3.607-8.041-8.041-8.041c-.731 0-1.473.105-2.204.313-.154.043-.323.011-.45-.091-.126-.102-.195-.258-.186-.42.014-.23.025-.46.025-.694 0-5.962-4.851-10.812-10.813-10.812-5.878 0-10.727 4.782-10.809 10.659-.003.214-.142.402-.345.468-.203.067-.426-.003-.555-.174-.796-1.056-2.006-1.662-3.32-1.662-2.295 0-4.162 1.867-4.162 4.162 0 .292.032.59.096.883.039.18-.023.367-.164.487-.14.119-.337.152-.507.084-.784-.308-1.603-.465-2.434-.465z" fill="#63312d"/><path d="m60.824 59.131-2.362 1.471c-.467.291-1.23.291-1.697 0l-1.514-.942c-.467-.291-1.231-.291-1.697 0l-1.509.942c-.467.291-1.23.291-1.697 0l-1.508-.942c-.467-.291-1.23-.291-1.697 0l-1.508.942c-.467.291-1.23.291-1.697 0l-1.505-.941c-.466-.292-1.229-.292-1.696 0l-1.508.942c-.467.291-1.23.291-1.697 0l-1.508-.942c-.467-.291-1.23-.291-1.697 0l-1.508.941c-.466.292-1.23.292-1.695 0l-1.506-.941c-.467-.292-1.231-.292-1.697 0l-1.507.941c-.466.292-1.229.292-1.696 0l-1.505-.941c-.466-.292-1.229-.292-1.696 0l-1.506.941c-.467.292-1.23.292-1.697 0l-1.502-.94c-.467-.292-1.23-.292-1.697 0l-1.506.941c-.467.292-1.229.291-1.695 0l-1.504-.94c-.467-.292-1.229-.292-1.695 0l-1.502.94c-.466.292-1.229.292-1.695 0l-2.352-1.47v-2.99l2.352 1.47c.467.292 1.229.292 1.695 0l1.502-.939c.467-.291 1.229-.291 1.695 0l1.504.939c.466.292 1.229.292 1.695 0l1.506-.94c.467-.292 1.231-.292 1.697 0l1.502.939c.467.292 1.231.292 1.697 0l1.506-.94c.467-.292 1.231-.292 1.696 0l1.505.94c.467.292 1.23.292 1.696 0l1.507-.94c.467-.292 1.23-.292 1.697 0l1.506.94c.466.292 1.229.292 1.695 0l1.508-.94c.467-.292 1.23-.292 1.697 0l1.508.941c.467.291 1.23.291 1.697 0l1.508-.941c.467-.291 1.23-.291 1.696 0l1.505.94c.467.292 1.231.292 1.697 0l1.508-.941c.467-.291 1.23-.291 1.697 0l1.508.941c.467.291 1.23.291 1.697 0l1.509-.941c.467-.291 1.23-.292 1.697 0l1.514.942c.467.291 1.23.291 1.697 0l2.362-1.471z" fill="#fff"/><path d="m57.613 61.319c-.4 0-.801-.098-1.113-.292l-1.514-.942c-.306-.191-.862-.189-1.168 0l-1.509.941c-.625.389-1.602.389-2.227 0l-1.508-.941c-.305-.19-.863-.19-1.168 0l-1.508.941c-.624.389-1.601.39-2.227 0l-1.505-.941c-.307-.19-.862-.191-1.167 0l-1.508.941c-.625.389-1.602.389-2.227 0l-1.508-.941c-.305-.191-.861-.19-1.168 0l-1.508.94c-.623.39-1.601.39-2.226 0l-1.505-.94c-.307-.191-.861-.191-1.168 0l-1.507.94c-.623.39-1.601.39-2.226 0l-1.505-.941c-.306-.191-.861-.19-1.167 0l-1.506.94c-.623.39-1.603.39-2.228-.001l-1.502-.939c-.306-.192-.861-.191-1.167 0l-1.506.94c-.623.389-1.601.39-2.226-.001l-1.503-.939c-.305-.19-.861-.191-1.166 0l-1.501.939c-.625.391-1.602.391-2.227 0l-2.351-1.47c-.146-.091-.235-.251-.235-.424v-2.99c0-.182.099-.349.258-.438.159-.087.354-.083.507.014l2.352 1.47c.307.19.86.19 1.165 0l1.502-.939c.625-.39 1.603-.389 2.226 0l1.504.94c.307.191.861.19 1.166 0l1.506-.94c.623-.39 1.603-.39 2.228.001l1.502.939c.305.192.86.191 1.167 0l1.506-.94c.625-.39 1.602-.39 2.227 0l1.504.94c.306.19.86.191 1.166 0l1.508-.941c.625-.39 1.602-.39 2.227 0l1.506.94c.307.191.86.191 1.165 0l1.509-.941c.625-.39 1.602-.389 2.227 0l1.508.941c.305.19.863.19 1.168 0l1.508-.941c.627-.39 1.604-.389 2.227.001l1.504.94c.308.191.864.19 1.168 0l1.508-.941c.625-.389 1.602-.389 2.227 0l1.508.941c.305.19.863.19 1.168 0l1.509-.941c.624-.389 1.603-.39 2.227 0l1.514.942c.305.19.863.19 1.168 0l2.362-1.471c.155-.096.349-.101.508-.013.158.088.257.255.257.437v2.99c0 .173-.089.333-.235.424l-2.362 1.471c-.314.198-.714.295-1.115.295zm-3.21-2.375c.4 0 .801.097 1.112.292l1.514.942c.305.19.863.19 1.168 0l2.127-1.325v-1.812l-1.598.995c-.625.39-1.602.389-2.227 0l-1.514-.942c-.306-.191-.862-.189-1.168 0l-1.509.941c-.625.389-1.602.389-2.227 0l-1.508-.941c-.305-.19-.863-.19-1.168 0l-1.508.941c-.624.389-1.601.39-2.227 0l-1.505-.941c-.307-.19-.862-.191-1.167 0l-1.508.941c-.625.389-1.602.389-2.227 0l-1.508-.941c-.305-.191-.861-.19-1.168 0l-1.508.94c-.623.39-1.601.39-2.226 0l-1.505-.94c-.307-.191-.861-.191-1.168 0l-1.507.94c-.623.39-1.601.39-2.226 0l-1.505-.941c-.306-.191-.861-.19-1.167 0l-1.506.94c-.623.39-1.603.39-2.228-.001l-1.502-.939c-.306-.192-.861-.191-1.167 0l-1.506.94c-.623.389-1.601.39-2.226-.001l-1.503-.939c-.305-.19-.861-.191-1.166 0l-1.501.939c-.625.391-1.602.391-2.227 0l-1.586-.991v1.811l2.116 1.323c.307.19.86.19 1.165 0l1.502-.939c.625-.39 1.603-.389 2.226 0l1.504.94c.307.191.861.19 1.166 0l1.506-.94c.623-.39 1.603-.39 2.228.001l1.502.939c.305.192.86.191 1.167 0l1.506-.94c.625-.39 1.602-.39 2.227 0l1.504.94c.306.19.86.191 1.166 0l1.508-.941c.625-.39 1.602-.39 2.227 0l1.506.94c.307.191.86.191 1.165 0l1.509-.941c.625-.39 1.602-.389 2.227 0l1.508.941c.305.19.863.19 1.168 0l1.508-.941c.627-.39 1.604-.389 2.227.001l1.504.94c.308.191.864.19 1.168 0l1.508-.941c.625-.389 1.602-.389 2.227 0l1.508.941c.305.19.863.19 1.168 0l1.509-.941c.315-.192.715-.29 1.116-.29z" fill="#63312d"/><path d="m60.824 49.519-2.362 1.471c-.467.291-1.23.291-1.697 0l-1.514-.942c-.467-.291-1.231-.291-1.697 0l-1.509.941c-.467.291-1.23.291-1.697 0l-1.508-.941c-.467-.291-1.23-.291-1.697 0l-1.508.941c-.467.291-1.23.291-1.697 0l-1.505-.94c-.466-.292-1.229-.292-1.696 0l-1.508.941c-.467.291-1.23.291-1.697 0l-1.508-.941c-.467-.291-1.23-.291-1.697 0l-1.508.94c-.466.292-1.23.292-1.695 0l-1.506-.94c-.467-.292-1.231-.292-1.697 0l-1.507.94c-.466.292-1.229.292-1.696 0l-1.505-.94c-.466-.292-1.229-.292-1.696 0l-1.506.94c-.467.292-1.23.292-1.697 0l-1.502-.939c-.467-.292-1.23-.292-1.697 0l-1.506.94c-.467.292-1.229.291-1.695 0l-1.504-.939c-.467-.292-1.229-.292-1.695 0l-1.502.939c-.466.292-1.229.292-1.695 0l-2.352-1.47v-2.99l2.352 1.47c.467.292 1.229.292 1.695 0l1.502-.939c.467-.292 1.229-.292 1.695 0l1.504.939c.466.292 1.229.292 1.695 0l1.506-.94c.467-.292 1.231-.292 1.697 0l1.502.939c.467.292 1.231.292 1.697 0l1.506-.94c.467-.292 1.231-.292 1.696 0l1.505.94c.467.292 1.23.292 1.696 0l1.507-.94c.467-.292 1.23-.292 1.697 0l1.506.94c.466.292 1.229.292 1.695 0l1.508-.94c.467-.292 1.23-.292 1.697 0l1.507.941c.467.291 1.23.291 1.697 0l1.508-.941c.467-.291 1.23-.291 1.696 0l1.505.94c.467.292 1.231.292 1.697 0l1.508-.941c.467-.291 1.23-.291 1.697 0l1.509.942c.467.291 1.23.291 1.697 0l1.509-.941c.467-.291 1.23-.292 1.697-.001l1.514.942c.467.291 1.23.291 1.697 0l2.362-1.471z" fill="#fff"/><path d="m57.613 51.707c-.4 0-.801-.098-1.113-.292l-1.514-.942c-.306-.191-.862-.189-1.168 0l-1.509.941c-.625.389-1.602.389-2.227 0l-1.508-.941c-.305-.19-.863-.19-1.168 0l-1.508.941c-.624.389-1.601.39-2.227 0l-1.505-.941c-.307-.19-.862-.191-1.167 0l-1.508.941c-.625.389-1.602.389-2.227 0l-1.508-.941c-.305-.191-.861-.19-1.168 0l-1.508.94c-.623.39-1.601.39-2.226 0l-1.505-.94c-.307-.191-.861-.191-1.168 0l-1.507.94c-.623.39-1.601.39-2.226 0l-1.505-.941c-.306-.191-.861-.19-1.167 0l-1.506.94c-.623.39-1.603.39-2.228-.001l-1.502-.939c-.306-.192-.861-.191-1.167 0l-1.506.94c-.623.389-1.601.39-2.226-.001l-1.503-.939c-.305-.19-.861-.191-1.166 0l-1.501.939c-.625.391-1.602.391-2.227 0l-2.351-1.47c-.146-.091-.235-.251-.235-.424v-2.99c0-.182.099-.349.258-.438.159-.087.354-.083.507.014l2.352 1.47c.307.19.86.19 1.165 0l1.502-.939c.625-.39 1.603-.389 2.226 0l1.504.94c.307.191.861.19 1.166 0l1.506-.94c.623-.39 1.603-.39 2.228.001l1.502.939c.305.192.86.191 1.167 0l1.506-.94c.625-.39 1.602-.39 2.227 0l1.504.94c.306.19.86.191 1.166 0l1.508-.941c.625-.39 1.602-.39 2.227 0l1.506.94c.307.191.86.191 1.165 0l1.509-.941c.625-.39 1.602-.389 2.227 0l1.508.941c.305.19.863.19 1.168 0l1.508-.941c.627-.39 1.604-.389 2.227.001l1.504.94c.308.191.864.19 1.168 0l1.508-.941c.625-.389 1.602-.389 2.227 0l1.508.941c.305.19.863.19 1.168 0l1.509-.941c.624-.389 1.603-.39 2.227 0l1.514.942c.305.19.863.19 1.168 0l2.362-1.471c.155-.096.349-.101.508-.013.158.088.257.255.257.437v2.99c0 .173-.089.333-.235.424l-2.362 1.471c-.314.197-.714.295-1.115.295zm-3.21-2.375c.4 0 .801.097 1.112.292l1.514.942c.305.19.863.19 1.168 0l2.127-1.325v-1.812l-1.598.995c-.625.39-1.602.389-2.227 0l-1.514-.942c-.306-.19-.862-.19-1.168 0l-1.509.941c-.625.389-1.602.389-2.227 0l-1.508-.941c-.305-.19-.863-.19-1.168 0l-1.508.941c-.624.389-1.601.39-2.227 0l-1.505-.941c-.307-.19-.862-.19-1.167 0l-1.508.941c-.625.389-1.602.389-2.227 0l-1.508-.941c-.305-.19-.861-.191-1.168 0l-1.508.94c-.623.39-1.601.39-2.226 0l-1.505-.94c-.307-.191-.861-.191-1.168 0l-1.507.94c-.623.39-1.601.39-2.226 0l-1.505-.941c-.306-.19-.861-.191-1.167 0l-1.506.94c-.623.39-1.603.39-2.228-.001l-1.502-.939c-.306-.191-.861-.191-1.167 0l-1.506.94c-.623.389-1.601.39-2.226-.001l-1.503-.939c-.305-.19-.861-.191-1.166 0l-1.501.939c-.625.391-1.602.391-2.227 0l-1.586-.991v1.811l2.116 1.323c.307.19.86.19 1.165 0l1.502-.939c.625-.39 1.603-.389 2.226 0l1.504.94c.307.191.861.19 1.166 0l1.506-.94c.623-.39 1.603-.39 2.228.001l1.502.939c.305.192.86.191 1.167 0l1.506-.94c.625-.39 1.602-.39 2.227 0l1.504.94c.306.19.86.191 1.166 0l1.508-.941c.625-.39 1.602-.39 2.227 0l1.506.94c.307.191.86.191 1.165 0l1.509-.941c.625-.39 1.602-.389 2.227 0l1.508.941c.305.19.863.19 1.168 0l1.508-.941c.627-.39 1.604-.389 2.227.001l1.504.94c.308.191.864.19 1.168 0l1.508-.941c.625-.389 1.602-.389 2.227 0l1.508.941c.305.19.863.19 1.168 0l1.509-.941c.315-.193.715-.29 1.116-.29z" fill="#63312d"/><path d="m60.824 39.907-2.362 1.471c-.467.291-1.23.291-1.697 0l-1.514-.942c-.467-.291-1.231-.291-1.697 0l-1.509.941c-.467.291-1.23.291-1.697 0l-1.508-.941c-.467-.291-1.23-.291-1.697 0l-1.508.941c-.467.291-1.23.291-1.697 0l-1.505-.94c-.466-.292-1.229-.292-1.696 0l-1.508.941c-.467.291-1.23.291-1.697 0l-1.508-.941c-.467-.291-1.23-.291-1.697 0l-1.508.94c-.466.292-1.23.292-1.695 0l-1.506-.94c-.467-.292-1.231-.292-1.697 0l-1.507.94c-.466.292-1.229.292-1.696 0l-1.505-.94c-.466-.292-1.229-.292-1.696 0l-1.506.94c-.467.292-1.23.292-1.697 0l-1.502-.939c-.467-.292-1.23-.292-1.697 0l-1.506.94c-.467.292-1.229.291-1.695 0l-1.504-.939c-.467-.292-1.229-.292-1.695 0l-1.502.939c-.466.292-1.229.292-1.695 0l-2.352-1.47v-2.99l2.352 1.47c.467.292 1.229.292 1.695 0l1.502-.939c.467-.292 1.229-.292 1.695 0l1.504.939c.466.292 1.229.292 1.695 0l1.506-.94c.467-.292 1.231-.292 1.697 0l1.502.939c.467.292 1.231.292 1.697 0l1.506-.94c.467-.292 1.231-.292 1.696 0l1.505.94c.467.292 1.23.292 1.696 0l1.507-.94c.467-.292 1.23-.292 1.697 0l1.506.94c.466.292 1.229.292 1.695 0l1.508-.94c.467-.292 1.23-.292 1.697 0l1.508.941c.467.291 1.23.291 1.697 0l1.508-.941c.467-.291 1.23-.291 1.696 0l1.505.94c.467.292 1.231.292 1.697 0l1.508-.941c.467-.291 1.23-.291 1.697 0l1.508.941c.467.291 1.23.291 1.697 0l1.509-.941c.467-.291 1.23-.292 1.697 0l1.514.942c.467.291 1.23.291 1.697 0l2.362-1.471z" fill="#fff"/><path d="m57.613 42.094c-.4 0-.801-.098-1.113-.292l-1.514-.942c-.306-.191-.862-.189-1.168 0l-1.509.941c-.625.389-1.602.389-2.227 0l-1.508-.941c-.305-.19-.863-.19-1.168 0l-1.508.941c-.624.389-1.601.39-2.227 0l-1.505-.941c-.307-.19-.862-.191-1.167 0l-1.508.941c-.625.389-1.602.389-2.227 0l-1.508-.941c-.305-.191-.861-.19-1.168 0l-1.508.94c-.623.39-1.601.39-2.226 0l-1.505-.94c-.307-.191-.861-.191-1.168 0l-1.507.94c-.623.39-1.601.39-2.226 0l-1.505-.941c-.306-.191-.861-.19-1.167 0l-1.506.94c-.623.39-1.603.39-2.228-.001l-1.502-.939c-.306-.192-.861-.191-1.167 0l-1.506.94c-.623.389-1.601.39-2.226-.001l-1.503-.939c-.305-.19-.861-.191-1.166 0l-1.495.941c-.625.391-1.602.391-2.227 0l-2.351-1.47c-.146-.091-.235-.251-.235-.424v-2.99c0-.182.099-.349.258-.438.159-.087.354-.083.507.014l2.352 1.47c.307.19.86.19 1.165 0l1.502-.939c.625-.39 1.603-.389 2.226 0l1.504.94c.307.191.861.19 1.166 0l1.506-.94c.623-.39 1.603-.39 2.228.001l1.502.939c.305.192.86.191 1.167 0l1.506-.94c.625-.39 1.602-.39 2.227 0l1.504.94c.306.19.86.191 1.166 0l1.508-.941c.625-.39 1.602-.39 2.227 0l1.506.94c.307.191.86.191 1.165 0l1.509-.941c.625-.39 1.602-.389 2.227 0l1.508.941c.305.19.863.19 1.168 0l1.508-.941c.627-.39 1.604-.389 2.227.001l1.504.94c.308.191.864.19 1.168 0l1.508-.941c.625-.389 1.602-.389 2.227 0l1.508.941c.305.19.863.19 1.168 0l1.509-.941c.624-.389 1.603-.39 2.227 0l1.514.942c.305.19.863.19 1.168 0l2.362-1.471c.155-.096.349-.101.508-.013.158.088.257.255.257.437v2.99c0 .173-.089.333-.235.424l-2.362 1.471c-.32.196-.72.293-1.121.293zm-3.21-2.374c.4 0 .801.097 1.112.292l1.514.942c.305.19.863.19 1.168 0l2.127-1.325v-1.812l-1.598.995c-.625.39-1.602.389-2.227 0l-1.514-.942c-.306-.191-.862-.189-1.168 0l-1.509.941c-.625.389-1.602.389-2.227 0l-1.508-.941c-.305-.19-.863-.19-1.168 0l-1.508.941c-.624.389-1.601.39-2.227 0l-1.505-.941c-.307-.19-.862-.191-1.167 0l-1.508.941c-.625.389-1.602.389-2.227 0l-1.508-.941c-.305-.191-.861-.19-1.168 0l-1.508.94c-.623.39-1.601.39-2.226 0l-1.505-.94c-.307-.191-.861-.191-1.168 0l-1.507.94c-.623.39-1.601.39-2.226 0l-1.505-.941c-.306-.191-.861-.19-1.167 0l-1.506.94c-.623.39-1.603.39-2.228-.001l-1.502-.939c-.306-.192-.861-.191-1.167 0l-1.506.94c-.623.389-1.601.39-2.226-.001l-1.503-.939c-.305-.19-.861-.191-1.166 0l-1.494.941c-.625.391-1.602.391-2.227 0l-1.586-.991v1.811l2.116 1.323c.307.19.86.19 1.165 0l1.502-.939c.625-.39 1.603-.389 2.226 0l1.504.94c.307.191.861.19 1.166 0l1.506-.94c.623-.39 1.603-.39 2.228.001l1.502.939c.305.192.86.191 1.167 0l1.506-.94c.625-.39 1.602-.39 2.227 0l1.504.94c.306.19.86.191 1.166 0l1.508-.941c.625-.39 1.602-.39 2.227 0l1.506.94c.307.191.86.191 1.165 0l1.509-.941c.625-.39 1.602-.389 2.227 0l1.508.941c.305.19.863.19 1.168 0l1.508-.941c.627-.39 1.604-.389 2.227.001l1.504.94c.308.191.864.19 1.168 0l1.508-.941c.625-.389 1.602-.389 2.227 0l1.508.941c.305.19.863.19 1.168 0l1.509-.941c.308-.195.708-.292 1.109-.292z" fill="#63312d"/></svg>