<svg enable-background="new 0 0 64 64" height="512" viewBox="0 0 64 64" width="512" xmlns="http://www.w3.org/2000/svg"><path d="m60.825 56.681-2.363 1.471c-.467.291-1.23.291-1.697 0l-1.514-.942c-.467-.291-1.23-.291-1.697 0l-1.509.942c-.467.291-1.23.291-1.697 0l-1.508-.942c-.467-.291-1.231-.291-1.697 0l-1.508.942c-.467.291-1.23.291-1.697 0l-1.505-.941c-.466-.292-1.23-.292-1.697 0l-1.508.942c-.467.291-1.23.291-1.697 0l-1.508-.942c-.467-.291-1.23-.291-1.697 0l-1.507.941c-.466.292-1.23.292-1.696 0l-1.506-.941c-.466-.292-1.23-.292-1.696 0l-1.507.941c-.466.292-1.23.292-1.696 0l-1.505-.941c-.466-.292-1.23-.292-1.696 0l-1.506.941c-.466.292-1.229.292-1.696 0l-1.503-.94c-.467-.292-1.23-.292-1.696 0l-1.506.941c-.466.292-1.229.291-1.696 0l-1.503-.94c-.467-.292-1.229-.292-1.696 0l-1.501.94c-.466.292-1.23.292-1.696 0l-2.352-1.47v-2.99l2.352 1.47c.466.292 1.229.292 1.696 0l1.501-.939c.466-.292 1.229-.292 1.696 0l1.503.939c.466.292 1.229.292 1.696 0l1.506-.94c.466-.292 1.229-.292 1.696 0l1.503.939c.467.292 1.23.292 1.696 0l1.506-.94c.466-.292 1.23-.292 1.696 0l1.505.94c.466.292 1.23.292 1.696 0l1.507-.94c.466-.292 1.23-.292 1.696 0l1.506.94c.466.292 1.23.292 1.696 0l1.507-.94c.466-.292 1.23-.292 1.697 0l1.508.941c.467.291 1.23.291 1.697 0l1.508-.941c.467-.291 1.23-.291 1.697 0l1.505.94c.466.292 1.23.292 1.697 0l1.508-.941c.467-.291 1.23-.291 1.697 0l1.508.941c.467.291 1.23.291 1.697 0l1.509-.941c.467-.291 1.23-.292 1.697 0l1.514.942c.467.291 1.23.291 1.697 0l2.363-1.471z" fill="#fff"/><path d="m57.613 58.869c-.4 0-.801-.098-1.113-.292l-1.513-.942c-.306-.19-.863-.19-1.168 0l-1.509.941c-.624.389-1.603.389-2.227 0l-1.508-.941c-.306-.19-.862-.191-1.168 0l-1.508.941c-.624.389-1.603.389-2.227-.001l-1.505-.94c-.305-.19-.861-.19-1.167 0l-1.508.941c-.624.389-1.603.388-2.227 0l-1.508-.941c-.306-.19-.862-.19-1.167 0l-1.508.941c-.624.39-1.601.39-2.226 0l-1.505-.94c-.306-.191-.862-.191-1.167 0l-1.508.941c-.624.39-1.601.39-2.226 0l-1.505-.94c-.305-.19-.861-.19-1.166 0l-1.507.941c-.623.39-1.601.39-2.226-.001l-1.503-.939c-.306-.19-.861-.191-1.166 0l-1.507.941c-.623.39-1.601.39-2.226-.001l-1.503-.939c-.305-.191-.861-.191-1.166 0l-1.501.939c-.625.391-1.603.39-2.226 0l-2.352-1.47c-.146-.091-.235-.251-.235-.424v-2.99c0-.182.099-.349.258-.438.158-.088.352-.083.507.014l2.352 1.47c.305.19.861.19 1.166 0l1.501-.939c.624-.391 1.602-.39 2.226 0l1.503.94c.305.19.86.19 1.166 0l1.507-.941c.623-.39 1.601-.39 2.226.001l1.503.939c.306.19.861.191 1.166 0l1.507-.941c.624-.39 1.602-.39 2.226 0l1.505.94c.305.19.861.19 1.166 0l1.508-.941c.624-.39 1.601-.39 2.226 0l1.505.94c.306.191.862.191 1.167 0l1.508-.941c.624-.39 1.601-.39 2.226 0l1.508.941c.305.19.862.19 1.168 0l1.508-.941c.624-.389 1.603-.39 2.227.001l1.505.94c.305.19.861.19 1.167 0l1.508-.941c.624-.389 1.603-.389 2.227 0l1.508.941c.305.19.862.19 1.168 0l1.509-.941c.625-.39 1.603-.389 2.227 0l1.513.942c.307.19.863.19 1.168 0l2.363-1.471c.155-.096.348-.1.507-.013.159.088.257.255.257.437v2.99c0 .173-.089.333-.236.424l-2.363 1.471c-.311.194-.711.292-1.112.292zm-3.21-2.375c.4 0 .8.097 1.112.292l1.513.942c.307.19.863.19 1.168 0l2.127-1.325v-1.812l-1.599.995c-.624.39-1.601.389-2.226 0l-1.513-.942c-.306-.19-.863-.19-1.168 0l-1.509.941c-.624.389-1.603.389-2.227 0l-1.508-.941c-.306-.19-.862-.191-1.168 0l-1.508.941c-.624.389-1.603.39-2.227-.001l-1.505-.94c-.305-.19-.861-.19-1.167 0l-1.508.941c-.624.389-1.603.389-2.227 0l-1.508-.941c-.306-.19-.862-.19-1.167 0l-1.508.941c-.624.39-1.601.39-2.226 0l-1.505-.94c-.306-.191-.862-.191-1.167 0l-1.508.941c-.624.39-1.601.39-2.226 0l-1.505-.94c-.305-.19-.861-.19-1.166 0l-1.507.941c-.623.39-1.601.39-2.226-.001l-1.503-.939c-.306-.19-.861-.191-1.166 0l-1.507.941c-.623.39-1.601.39-2.226-.001l-1.503-.939c-.305-.191-.861-.191-1.166 0l-1.501.939c-.625.391-1.603.391-2.226 0l-1.586-.991v1.811l2.117 1.323c.305.19.861.19 1.166 0l1.501-.939c.624-.391 1.602-.39 2.226 0l1.503.94c.305.19.86.191 1.166 0l1.507-.941c.623-.39 1.601-.39 2.226.001l1.503.939c.306.19.861.191 1.166 0l1.507-.941c.624-.39 1.602-.39 2.226 0l1.505.94c.305.19.861.19 1.166 0l1.508-.941c.624-.39 1.601-.39 2.226 0l1.505.94c.306.191.862.191 1.167 0l1.508-.941c.624-.39 1.601-.39 2.226 0l1.508.941c.305.19.862.19 1.168 0l1.508-.941c.624-.389 1.603-.39 2.227.001l1.505.94c.305.19.861.19 1.167 0l1.508-.941c.624-.389 1.603-.389 2.227 0l1.508.941c.305.19.862.19 1.168 0l1.509-.941c.314-.196.714-.293 1.115-.293z" fill="#63312d"/><path d="m60.825 47.069-2.363 1.471c-.467.291-1.23.291-1.697 0l-1.514-.942c-.467-.291-1.23-.291-1.697 0l-1.509.942c-.467.291-1.23.291-1.697 0l-1.508-.942c-.467-.291-1.231-.291-1.697 0l-1.508.942c-.467.291-1.23.291-1.697 0l-1.505-.941c-.466-.292-1.23-.292-1.697 0l-1.508.942c-.467.291-1.23.291-1.697 0l-1.508-.942c-.467-.291-1.23-.291-1.697 0l-1.507.941c-.466.292-1.23.292-1.696 0l-1.506-.941c-.466-.292-1.23-.292-1.696 0l-1.507.941c-.466.292-1.23.292-1.696 0l-1.505-.941c-.466-.292-1.23-.292-1.696 0l-1.506.941c-.466.292-1.229.292-1.696 0l-1.503-.94c-.467-.292-1.23-.292-1.696 0l-1.506.941c-.466.292-1.229.291-1.696 0l-1.503-.94c-.467-.292-1.229-.292-1.696 0l-1.501.94c-.466.292-1.23.292-1.696 0l-2.352-1.47v-2.99l2.352 1.47c.466.292 1.229.292 1.696 0l1.501-.939c.466-.291 1.229-.291 1.696 0l1.503.939c.466.292 1.229.292 1.696 0l1.506-.94c.466-.292 1.229-.292 1.696 0l1.503.939c.467.292 1.23.292 1.696 0l1.506-.94c.466-.292 1.23-.292 1.696 0l1.505.94c.466.292 1.23.292 1.696 0l1.507-.94c.466-.292 1.23-.292 1.696 0l1.506.94c.466.292 1.23.292 1.696 0l1.507-.94c.466-.292 1.23-.292 1.697 0l1.508.941c.467.291 1.23.291 1.697 0l1.508-.941c.467-.291 1.23-.291 1.697 0l1.505.94c.466.292 1.23.292 1.697 0l1.508-.941c.467-.291 1.23-.291 1.697 0l1.508.941c.467.291 1.23.291 1.697 0l1.509-.941c.467-.291 1.23-.292 1.697 0l1.514.942c.467.291 1.23.291 1.697 0l2.363-1.471z" fill="#fff"/><path d="m57.613 49.256c-.4 0-.801-.098-1.113-.292l-1.513-.942c-.306-.19-.863-.19-1.168 0l-1.509.941c-.624.389-1.603.389-2.227 0l-1.508-.941c-.306-.19-.862-.19-1.168 0l-1.508.941c-.624.389-1.603.389-2.227-.001l-1.505-.94c-.305-.19-.861-.19-1.167 0l-1.508.941c-.624.389-1.603.388-2.227 0l-1.508-.941c-.306-.19-.862-.19-1.167 0l-1.508.941c-.624.39-1.601.39-2.226 0l-1.505-.94c-.306-.191-.862-.191-1.167 0l-1.508.941c-.624.39-1.601.39-2.226 0l-1.505-.94c-.305-.19-.861-.19-1.166 0l-1.507.941c-.623.39-1.601.39-2.226-.001l-1.503-.939c-.306-.19-.861-.191-1.166 0l-1.507.941c-.623.39-1.601.39-2.226-.001l-1.503-.939c-.305-.19-.861-.191-1.166 0l-1.501.939c-.625.391-1.603.39-2.226 0l-2.352-1.47c-.146-.091-.235-.251-.235-.424v-2.99c0-.182.099-.349.258-.438.158-.088.352-.083.507.014l2.352 1.47c.305.19.861.189 1.166 0l1.501-.939c.624-.391 1.602-.39 2.226 0l1.503.94c.305.189.86.191 1.166 0l1.507-.941c.623-.39 1.601-.39 2.226.001l1.503.939c.306.19.861.191 1.166 0l1.507-.941c.624-.39 1.602-.39 2.226 0l1.505.94c.305.19.861.19 1.166 0l1.508-.941c.624-.39 1.601-.39 2.226 0l1.505.94c.306.191.862.191 1.167 0l1.508-.941c.624-.39 1.601-.39 2.226 0l1.508.941c.305.19.862.19 1.168 0l1.508-.941c.624-.389 1.603-.39 2.227.001l1.505.94c.305.19.861.19 1.167 0l1.508-.941c.624-.389 1.603-.389 2.227 0l1.508.941c.305.19.862.19 1.168 0l1.509-.941c.625-.39 1.603-.389 2.227 0l1.513.942c.307.19.863.19 1.168 0l2.363-1.471c.155-.096.348-.101.507-.013s.257.255.257.437v2.99c0 .173-.089.333-.236.424l-2.363 1.471c-.311.195-.711.292-1.112.292zm-3.21-2.374c.4 0 .8.097 1.112.292l1.513.942c.307.19.863.19 1.168 0l2.127-1.325v-1.812l-1.599.995c-.624.39-1.601.389-2.226 0l-1.513-.942c-.306-.19-.863-.19-1.168 0l-1.509.941c-.624.389-1.603.389-2.227 0l-1.508-.941c-.306-.19-.862-.19-1.168 0l-1.508.941c-.624.389-1.603.39-2.227-.001l-1.505-.94c-.305-.19-.861-.19-1.167 0l-1.508.941c-.624.389-1.603.389-2.227 0l-1.508-.941c-.306-.19-.862-.19-1.167 0l-1.508.941c-.624.39-1.601.39-2.226 0l-1.505-.94c-.306-.191-.862-.191-1.167 0l-1.508.941c-.624.39-1.601.39-2.226 0l-1.505-.94c-.305-.19-.861-.19-1.166 0l-1.507.941c-.623.39-1.601.39-2.226-.001l-1.503-.939c-.306-.19-.861-.191-1.166 0l-1.507.941c-.623.39-1.601.39-2.226-.001l-1.503-.939c-.305-.191-.861-.191-1.166 0l-1.501.939c-.625.391-1.603.391-2.226 0l-1.586-.991v1.811l2.117 1.323c.305.19.861.189 1.166 0l1.501-.939c.624-.391 1.602-.39 2.226 0l1.503.94c.305.189.86.191 1.166 0l1.507-.941c.623-.39 1.601-.39 2.226.001l1.503.939c.306.19.861.191 1.166 0l1.507-.941c.624-.39 1.602-.39 2.226 0l1.505.94c.305.19.861.19 1.166 0l1.508-.941c.624-.39 1.601-.39 2.226 0l1.505.94c.306.191.862.191 1.167 0l1.508-.941c.624-.39 1.601-.39 2.226 0l1.508.941c.305.19.862.19 1.168 0l1.508-.941c.624-.389 1.603-.39 2.227.001l1.505.94c.305.19.861.19 1.167 0l1.508-.941c.624-.389 1.603-.389 2.227 0l1.508.941c.305.19.862.19 1.168 0l1.509-.941c.314-.196.714-.293 1.115-.293z" fill="#63312d"/><path d="m60.825 37.457-2.363 1.471c-.467.291-1.23.291-1.697 0l-1.514-.942c-.467-.291-1.23-.291-1.697 0l-1.509.941c-.467.291-1.23.291-1.697 0l-1.508-.941c-.467-.291-1.231-.291-1.697 0l-1.508.941c-.467.291-1.23.291-1.697 0l-1.505-.94c-.466-.292-1.23-.292-1.697 0l-1.508.941c-.467.291-1.23.291-1.697 0l-1.508-.941c-.467-.291-1.23-.291-1.697 0l-1.507.94c-.466.292-1.23.292-1.696 0l-1.506-.94c-.466-.292-1.23-.292-1.696 0l-1.507.94c-.466.292-1.23.292-1.696 0l-1.505-.94c-.466-.292-1.23-.292-1.696 0l-1.506.94c-.466.292-1.229.292-1.696 0l-1.503-.939c-.467-.292-1.23-.292-1.696 0l-1.506.94c-.466.292-1.229.291-1.696 0l-1.503-.939c-.467-.292-1.229-.292-1.696 0l-1.501.939c-.466.292-1.23.292-1.696 0l-2.352-1.47v-2.99l2.352 1.47c.466.292 1.229.292 1.696 0l1.501-.939c.466-.292 1.229-.292 1.696 0l1.503.939c.466.292 1.229.292 1.696 0l1.506-.94c.466-.292 1.229-.292 1.696 0l1.503.939c.467.292 1.23.292 1.696 0l1.506-.94c.466-.292 1.23-.292 1.696 0l1.505.94c.466.292 1.23.292 1.696 0l1.507-.94c.466-.292 1.23-.292 1.696 0l1.506.94c.466.292 1.23.292 1.696 0l1.507-.94c.466-.292 1.23-.292 1.697 0l1.508.941c.467.291 1.23.291 1.697 0l1.508-.941c.467-.291 1.23-.291 1.697 0l1.505.94c.466.292 1.23.292 1.697 0l1.508-.941c.467-.291 1.23-.291 1.697 0l1.508.941c.467.291 1.23.291 1.697 0l1.509-.941c.467-.291 1.23-.292 1.697-.001l1.514.942c.467.291 1.23.291 1.697 0l2.363-1.471z" fill="#fff"/><path d="m57.613 39.644c-.4 0-.801-.098-1.113-.292l-1.513-.942c-.306-.19-.863-.19-1.168 0l-1.509.941c-.624.389-1.603.389-2.227 0l-1.508-.941c-.306-.19-.862-.19-1.168 0l-1.508.941c-.624.389-1.603.389-2.227-.001l-1.505-.94c-.305-.19-.861-.19-1.167 0l-1.508.941c-.624.389-1.603.388-2.227 0l-1.508-.941c-.306-.19-.862-.19-1.167 0l-1.508.941c-.624.39-1.601.39-2.226 0l-1.505-.94c-.306-.191-.862-.191-1.167 0l-1.508.941c-.624.39-1.601.39-2.226 0l-1.505-.94c-.305-.19-.861-.19-1.166 0l-1.507.941c-.623.39-1.601.39-2.226-.001l-1.503-.939c-.306-.19-.861-.191-1.166 0l-1.507.941c-.623.39-1.601.39-2.226-.001l-1.503-.939c-.305-.19-.861-.191-1.166 0l-1.498.936c-.625.391-1.603.39-2.226 0l-2.352-1.47c-.146-.091-.235-.251-.235-.424v-2.99c0-.182.099-.349.258-.438.158-.087.352-.083.507.014l2.352 1.47c.305.19.861.19 1.166 0l1.501-.939c.624-.391 1.602-.39 2.226 0l1.503.94c.305.19.86.19 1.166 0l1.507-.941c.623-.39 1.601-.39 2.226.001l1.503.939c.306.19.861.191 1.166 0l1.507-.941c.624-.39 1.602-.39 2.226 0l1.505.94c.305.19.861.19 1.166 0l1.508-.941c.624-.39 1.601-.39 2.226 0l1.505.94c.306.191.862.191 1.167 0l1.508-.941c.624-.39 1.601-.39 2.226 0l1.508.941c.305.19.862.191 1.168 0l1.508-.941c.624-.389 1.603-.39 2.227.001l1.505.94c.305.19.861.19 1.167 0l1.508-.941c.624-.389 1.603-.389 2.227 0l1.508.941c.305.19.862.191 1.168 0l1.509-.941c.625-.39 1.603-.389 2.227 0l1.513.942c.307.19.863.19 1.168 0l2.363-1.471c.155-.096.348-.101.507-.013s.257.255.257.437v2.99c0 .173-.089.333-.236.424l-2.363 1.471c-.314.198-.714.295-1.115.295zm-3.21-2.374c.4 0 .8.097 1.112.292l1.513.942c.307.19.863.19 1.168 0l2.127-1.325v-1.812l-1.599.995c-.624.39-1.601.389-2.226 0l-1.513-.942c-.306-.19-.863-.19-1.168 0l-1.509.941c-.624.389-1.603.389-2.227 0l-1.508-.941c-.306-.19-.862-.19-1.168 0l-1.508.941c-.624.389-1.603.39-2.227-.001l-1.505-.94c-.305-.19-.861-.19-1.167 0l-1.508.941c-.624.389-1.603.389-2.227 0l-1.508-.941c-.306-.19-.862-.19-1.167 0l-1.508.941c-.624.39-1.601.39-2.226 0l-1.505-.94c-.306-.191-.862-.191-1.167 0l-1.508.941c-.624.39-1.601.39-2.226 0l-1.505-.94c-.305-.19-.861-.19-1.166 0l-1.507.941c-.623.39-1.601.39-2.226-.001l-1.503-.939c-.306-.19-.861-.191-1.166 0l-1.507.941c-.623.39-1.601.39-2.226-.001l-1.503-.939c-.305-.19-.861-.191-1.166 0l-1.496.936c-.625.391-1.603.391-2.226 0l-1.586-.991v1.811l2.117 1.323c.305.19.861.19 1.166 0l1.501-.939c.624-.391 1.602-.39 2.226 0l1.503.94c.305.19.86.19 1.166 0l1.507-.941c.623-.39 1.601-.39 2.226.001l1.503.939c.306.19.861.191 1.166 0l1.507-.941c.624-.39 1.602-.39 2.226 0l1.505.94c.305.19.861.19 1.166 0l1.508-.941c.624-.39 1.601-.39 2.226 0l1.505.94c.306.191.862.191 1.167 0l1.508-.941c.624-.39 1.601-.39 2.226 0l1.508.941c.305.19.862.191 1.168 0l1.508-.941c.624-.389 1.603-.39 2.227.001l1.505.94c.305.19.861.19 1.167 0l1.508-.941c.624-.389 1.603-.389 2.227 0l1.508.941c.305.19.862.191 1.168 0l1.509-.941c.309-.193.709-.29 1.11-.29z" fill="#63312d"/><path d="m60.825 27.844-2.363 1.471c-.467.291-1.23.291-1.697 0l-1.514-.942c-.467-.291-1.23-.29-1.697.001l-1.509.941c-.467.291-1.23.291-1.697 0l-1.508-.941c-.467-.291-1.231-.291-1.697 0l-1.508.941c-.467.291-1.23.291-1.697 0l-1.505-.941c-.466-.292-1.23-.292-1.697 0l-1.508.941c-.467.291-1.23.291-1.697 0l-1.508-.941c-.467-.291-1.23-.291-1.697 0l-1.507.941c-.466.292-1.23.292-1.696 0l-1.506-.941c-.466-.292-1.23-.292-1.696 0l-1.507.941c-.466.292-1.23.292-1.696 0l-1.505-.941c-.466-.292-1.23-.292-1.696 0l-1.506.941c-.466.292-1.229.292-1.696-.001l-1.503-.939c-.467-.292-1.23-.292-1.696 0l-1.506.941c-.466.292-1.229.291-1.696-.001l-1.503-.939c-.467-.292-1.229-.292-1.696 0l-1.501.939c-.466.292-1.23.292-1.696 0l-2.352-1.47v-2.99l2.352 1.47c.466.292 1.229.292 1.696 0l1.501-.939c.466-.292 1.229-.292 1.696 0l1.503.939c.466.292 1.229.292 1.696 0l1.506-.94c.466-.292 1.229-.292 1.696 0l1.503.939c.467.292 1.23.292 1.696 0l1.506-.94c.466-.292 1.23-.292 1.696 0l1.505.94c.466.292 1.23.292 1.696 0l1.507-.94c.466-.292 1.23-.292 1.696 0l1.506.94c.466.292 1.23.292 1.696 0l1.507-.94c.466-.292 1.23-.292 1.697 0l1.508.941c.467.291 1.23.291 1.697 0l1.508-.941c.467-.291 1.23-.291 1.697 0l1.505.94c.466.292 1.23.292 1.697 0l1.508-.941c.467-.291 1.23-.291 1.697 0l1.508.941c.467.291 1.23.291 1.697 0l1.509-.941c.467-.291 1.23-.292 1.697-.001l1.514.942c.467.291 1.23.291 1.697 0l2.363-1.471z" fill="#fff"/><path d="m57.613 30.032c-.4 0-.801-.098-1.113-.292l-1.513-.942c-.306-.19-.863-.19-1.168 0l-1.509.941c-.624.389-1.603.389-2.227 0l-1.508-.941c-.306-.19-.862-.191-1.168 0l-1.508.941c-.624.389-1.603.389-2.227-.001l-1.505-.94c-.305-.19-.861-.19-1.167 0l-1.508.941c-.624.389-1.603.388-2.227 0l-1.508-.941c-.306-.19-.862-.19-1.167 0l-1.508.941c-.624.39-1.601.39-2.226 0l-1.505-.94c-.306-.191-.862-.191-1.167 0l-1.508.941c-.624.39-1.601.39-2.226 0l-1.505-.94c-.305-.19-.861-.19-1.166 0l-1.507.941c-.623.39-1.601.39-2.226-.001l-1.503-.939c-.306-.19-.861-.191-1.166 0l-1.507.941c-.623.39-1.601.39-2.226-.001l-1.503-.939c-.305-.191-.861-.191-1.166 0l-1.501.939c-.625.391-1.603.39-2.226 0l-2.352-1.47c-.146-.091-.235-.251-.235-.424v-2.99c0-.182.099-.349.258-.438.158-.088.352-.083.507.014l2.352 1.47c.305.19.861.19 1.166 0l1.501-.939c.624-.391 1.602-.39 2.226 0l1.503.94c.305.19.86.191 1.166 0l1.507-.941c.623-.39 1.601-.39 2.226.001l1.503.939c.306.19.861.191 1.166 0l1.507-.941c.624-.39 1.602-.39 2.226 0l1.505.94c.305.19.861.19 1.166 0l1.508-.941c.624-.39 1.601-.39 2.226 0l1.505.94c.306.191.862.191 1.167 0l1.508-.941c.624-.39 1.601-.39 2.226 0l1.508.941c.305.19.862.19 1.168 0l1.508-.941c.624-.389 1.603-.39 2.227.001l1.505.94c.305.19.861.19 1.167 0l1.508-.941c.624-.389 1.603-.389 2.227 0l1.508.941c.305.19.862.19 1.168 0l1.509-.941c.625-.39 1.603-.389 2.227 0l1.513.942c.307.19.863.19 1.168 0l2.363-1.471c.155-.096.348-.101.507-.013s.257.255.257.437v2.99c0 .173-.089.333-.236.424l-2.363 1.471c-.311.195-.711.292-1.112.292zm-3.21-2.375c.4 0 .8.097 1.112.292l1.513.942c.307.19.863.19 1.168 0l2.127-1.325v-1.812l-1.599.995c-.624.39-1.601.389-2.226 0l-1.513-.942c-.306-.19-.863-.19-1.168 0l-1.509.941c-.624.389-1.603.389-2.227 0l-1.508-.941c-.306-.19-.862-.191-1.168 0l-1.508.941c-.624.389-1.603.39-2.227-.001l-1.505-.94c-.305-.19-.861-.19-1.167 0l-1.508.941c-.624.389-1.603.389-2.227 0l-1.508-.941c-.306-.19-.862-.19-1.167 0l-1.508.941c-.624.39-1.601.39-2.226 0l-1.505-.94c-.306-.191-.862-.191-1.167 0l-1.508.941c-.624.39-1.601.39-2.226 0l-1.505-.94c-.305-.19-.861-.19-1.166 0l-1.507.941c-.623.39-1.601.39-2.226-.001l-1.503-.939c-.306-.19-.861-.191-1.166 0l-1.507.941c-.623.39-1.601.39-2.226-.001l-1.503-.939c-.305-.191-.861-.191-1.166 0l-1.501.939c-.625.391-1.603.391-2.226 0l-1.586-.991v1.811l2.117 1.323c.305.19.861.189 1.166 0l1.501-.939c.624-.391 1.602-.39 2.226 0l1.503.94c.305.189.86.191 1.166 0l1.507-.941c.623-.39 1.601-.39 2.226.001l1.503.939c.306.19.861.191 1.166 0l1.507-.941c.624-.39 1.602-.39 2.226 0l1.505.94c.305.19.861.19 1.166 0l1.508-.941c.624-.39 1.601-.39 2.226 0l1.505.94c.306.191.862.191 1.167 0l1.508-.941c.624-.39 1.601-.39 2.226 0l1.508.941c.305.19.862.19 1.168 0l1.508-.941c.624-.389 1.603-.39 2.227.001l1.505.94c.305.19.861.19 1.167 0l1.508-.941c.624-.389 1.603-.389 2.227 0l1.508.941c.305.19.862.19 1.168 0l1.509-.941c.314-.196.714-.293 1.115-.293z" fill="#63312d"/><path d="m60.825 18.232-2.363 1.471c-.467.291-1.23.291-1.697 0l-1.514-.942c-.467-.291-1.23-.291-1.697 0l-1.509.941c-.467.291-1.23.291-1.697 0l-1.508-.941c-.467-.291-1.231-.291-1.697 0l-1.508.941c-.467.291-1.23.291-1.697 0l-1.505-.94c-.466-.292-1.23-.292-1.697 0l-1.508.941c-.467.291-1.23.291-1.697 0l-1.508-.941c-.467-.291-1.23-.291-1.697 0l-1.507.94c-.466.292-1.23.292-1.696 0l-1.506-.94c-.466-.292-1.23-.292-1.696 0l-1.507.94c-.466.292-1.23.292-1.696 0l-1.505-.94c-.466-.292-1.23-.292-1.696 0l-1.506.94c-.466.292-1.229.292-1.696 0l-1.503-.94c-.467-.292-1.23-.292-1.696 0l-1.506.94c-.466.292-1.229.291-1.696 0l-1.503-.94c-.467-.292-1.229-.292-1.696 0l-1.501.94c-.466.292-1.23.292-1.696 0l-2.352-1.47v-2.99l2.352 1.47c.466.292 1.229.292 1.696 0l1.501-.939c.466-.292 1.229-.292 1.696 0l1.503.939c.466.292 1.229.292 1.696.001l1.506-.94c.466-.292 1.229-.292 1.696.001l1.503.939c.467.292 1.23.292 1.696.001l1.506-.94c.466-.292 1.23-.292 1.696 0l1.505.94c.466.292 1.23.292 1.696 0l1.507-.94c.466-.292 1.23-.292 1.696 0l1.506.94c.466.292 1.23.292 1.696 0l1.507-.94c.466-.292 1.23-.292 1.697 0l1.508.941c.467.291 1.23.291 1.697 0l1.508-.941c.467-.291 1.23-.291 1.697 0l1.505.94c.466.292 1.23.292 1.697 0l1.508-.941c.467-.291 1.23-.291 1.697 0l1.508.941c.467.291 1.23.291 1.697 0l1.509-.941c.467-.291 1.23-.292 1.697 0l1.514.942c.467.291 1.23.291 1.697 0l2.363-1.471z" fill="#fff"/><path d="m57.613 20.419c-.4 0-.801-.098-1.113-.292l-1.513-.942c-.306-.19-.863-.19-1.168 0l-1.509.941c-.624.389-1.603.389-2.227 0l-1.508-.941c-.306-.19-.862-.19-1.168 0l-1.508.941c-.624.389-1.603.389-2.227-.001l-1.505-.94c-.305-.19-.861-.19-1.167 0l-1.508.941c-.624.389-1.603.388-2.227 0l-1.508-.941c-.306-.19-.862-.19-1.167 0l-1.508.941c-.624.39-1.601.39-2.226 0l-1.505-.94c-.306-.191-.862-.191-1.167 0l-1.508.941c-.624.39-1.601.39-2.226 0l-1.505-.94c-.305-.19-.861-.19-1.166 0l-1.507.941c-.623.39-1.601.39-2.226-.001l-1.503-.939c-.306-.19-.861-.191-1.166 0l-1.507.941c-.623.39-1.601.39-2.226-.001l-1.503-.939c-.305-.19-.861-.191-1.166 0l-1.501.939c-.625.391-1.603.39-2.226 0l-2.352-1.47c-.146-.091-.235-.251-.235-.424v-2.99c0-.182.099-.349.258-.438.158-.088.352-.083.507.014l2.352 1.47c.305.19.861.189 1.166 0l1.501-.939c.624-.391 1.602-.39 2.226 0l1.503.94c.305.189.86.191 1.166 0l1.507-.941c.623-.39 1.601-.39 2.226.001l1.503.939c.306.19.861.191 1.166 0l1.507-.941c.624-.39 1.602-.39 2.226 0l1.505.94c.305.19.861.19 1.166 0l1.508-.941c.624-.39 1.601-.39 2.226 0l1.505.94c.306.191.862.191 1.167 0l1.508-.941c.624-.39 1.601-.39 2.226 0l1.508.941c.305.19.862.19 1.168 0l1.508-.941c.624-.389 1.603-.39 2.227.001l1.505.94c.305.19.861.19 1.167 0l1.508-.941c.624-.389 1.603-.389 2.227 0l1.508.941c.305.19.862.19 1.168 0l1.509-.941c.625-.39 1.603-.389 2.227 0l1.513.942c.307.19.863.19 1.168 0l2.363-1.471c.155-.095.348-.1.507-.013.159.088.257.255.257.437v2.99c0 .173-.089.333-.236.424l-2.363 1.471c-.311.195-.711.292-1.112.292zm-3.21-2.374c.4 0 .8.097 1.112.292l1.513.942c.307.19.863.19 1.168 0l2.127-1.325v-1.812l-1.599.995c-.624.39-1.601.389-2.226 0l-1.513-.942c-.306-.19-.863-.19-1.168 0l-1.509.941c-.624.389-1.603.389-2.227 0l-1.508-.941c-.306-.19-.862-.19-1.168 0l-1.508.941c-.624.389-1.603.39-2.227-.001l-1.505-.94c-.305-.19-.861-.19-1.167 0l-1.508.941c-.624.389-1.603.389-2.227 0l-1.508-.941c-.306-.19-.862-.19-1.167 0l-1.508.941c-.624.39-1.601.39-2.226 0l-1.505-.94c-.306-.191-.862-.191-1.167 0l-1.508.941c-.624.39-1.601.39-2.226 0l-1.505-.94c-.305-.19-.861-.19-1.166 0l-1.507.941c-.623.39-1.601.39-2.226-.001l-1.503-.939c-.306-.19-.861-.191-1.166 0l-1.507.941c-.623.39-1.601.39-2.226-.001l-1.503-.939c-.305-.19-.861-.191-1.166 0l-1.501.939c-.625.391-1.603.391-2.226 0l-1.586-.991v1.811l2.117 1.323c.305.19.861.189 1.166 0l1.501-.939c.624-.391 1.602-.39 2.226 0l1.503.94c.305.189.86.191 1.166 0l1.507-.941c.623-.39 1.601-.39 2.226.001l1.503.939c.306.19.861.191 1.166 0l1.507-.941c.624-.39 1.602-.39 2.226 0l1.505.94c.305.19.861.19 1.166 0l1.508-.941c.624-.39 1.601-.39 2.226 0l1.505.94c.306.191.862.191 1.167 0l1.508-.941c.624-.39 1.601-.39 2.226 0l1.508.941c.305.19.862.19 1.168 0l1.508-.941c.624-.389 1.603-.39 2.227.001l1.505.94c.305.19.861.19 1.167 0l1.508-.941c.624-.389 1.603-.389 2.227 0l1.508.941c.305.19.862.19 1.168 0l1.509-.941c.314-.196.714-.293 1.115-.293z" fill="#63312d"/><path d="m60.825 8.62-2.363 1.471c-.467.291-1.23.291-1.697 0l-1.514-.942c-.467-.291-1.23-.291-1.697 0l-1.509.941c-.467.291-1.23.291-1.697 0l-1.508-.941c-.467-.291-1.231-.291-1.697 0l-1.508.941c-.467.291-1.23.291-1.697 0l-1.505-.94c-.466-.292-1.23-.292-1.697 0l-1.508.941c-.467.291-1.23.291-1.697 0l-1.508-.941c-.467-.291-1.23-.291-1.697 0l-1.507.94c-.466.292-1.23.292-1.696 0l-1.506-.94c-.466-.292-1.23-.292-1.696 0l-1.507.94c-.466.292-1.23.292-1.696 0l-1.505-.94c-.466-.292-1.23-.292-1.696 0l-1.506.94c-.466.292-1.229.292-1.696 0l-1.505-.94c-.467-.292-1.23-.292-1.696-.001l-1.506.94c-.466.292-1.229.291-1.696 0l-1.503-.939c-.467-.292-1.229-.292-1.696 0l-1.501.939c-.466.292-1.23.292-1.696 0l-2.352-1.469v-2.99l2.352 1.47c.466.292 1.229.292 1.696 0l1.501-.94c.466-.292 1.229-.292 1.696 0l1.503.939c.466.292 1.229.292 1.696 0l1.506-.94c.466-.292 1.229-.292 1.696 0l1.503.939c.467.292 1.23.292 1.696 0l1.506-.94c.466-.292 1.23-.292 1.696 0l1.505.94c.466.292 1.23.292 1.696 0l1.507-.94c.466-.292 1.23-.292 1.696 0l1.506.94c.466.292 1.23.292 1.696 0l1.507-.94c.466-.292 1.23-.292 1.697-.001l1.51.943c.467.291 1.23.291 1.697 0l1.508-.941c.467-.291 1.23-.291 1.697.001l1.505.94c.466.292 1.23.292 1.697.001l1.508-.941c.467-.291 1.23-.291 1.697 0l1.507.94c.467.291 1.23.291 1.697 0l1.509-.941c.467-.291 1.23-.292 1.697-.001l1.514.942c.467.291 1.23.291 1.697 0l2.363-1.471v2.991z" fill="#fff"/><path d="m57.613 10.807c-.4 0-.801-.098-1.113-.292l-1.513-.942c-.306-.19-.863-.19-1.168 0l-1.509.941c-.624.389-1.603.389-2.227 0l-1.508-.941c-.306-.19-.862-.19-1.168 0l-1.508.941c-.624.389-1.603.389-2.227-.001l-1.505-.94c-.305-.19-.861-.19-1.167 0l-1.508.941c-.624.389-1.603.388-2.227 0l-1.508-.941c-.306-.19-.862-.19-1.167 0l-1.508.941c-.624.39-1.601.39-2.226 0l-1.505-.94c-.306-.191-.862-.191-1.167 0l-1.508.941c-.624.39-1.601.39-2.226 0l-1.505-.94c-.305-.19-.861-.19-1.166 0l-1.507.941c-.623.39-1.601.39-2.226-.001l-1.503-.939c-.306-.19-.861-.191-1.166 0l-1.507.941c-.623.39-1.601.39-2.226-.001l-1.503-.939c-.305-.19-.861-.191-1.166 0l-1.501.939c-.625.391-1.603.39-2.226 0l-2.352-1.47c-.143-.094-.232-.254-.232-.426v-2.99c0-.182.099-.349.258-.438.158-.088.352-.084.507.014l2.352 1.47c.305.19.861.19 1.166 0l1.501-.939c.624-.391 1.602-.39 2.226 0l1.503.94c.305.19.86.19 1.166 0l1.507-.941c.623-.39 1.601-.39 2.226.001l1.503.939c.306.19.861.191 1.166 0l1.507-.941c.624-.39 1.602-.39 2.226 0l1.505.94c.305.19.861.19 1.166 0l1.508-.941c.624-.39 1.601-.39 2.226 0l1.505.94c.306.191.862.191 1.167 0l1.508-.941c.624-.39 1.601-.39 2.226 0l1.508.941c.305.19.862.191 1.168 0l1.508-.941c.624-.389 1.603-.39 2.227.001l1.505.94c.305.19.861.19 1.167 0l1.508-.941c.624-.389 1.603-.389 2.227 0l1.508.941c.305.19.862.191 1.168 0l1.509-.941c.625-.39 1.603-.389 2.227 0l1.513.942c.307.19.863.19 1.168 0l2.363-1.471c.155-.096.348-.1.507-.013.159.088.257.255.257.437v2.99c0 .173-.089.333-.236.424l-2.363 1.471c-.314.197-.714.294-1.115.294zm-3.21-2.374c.4 0 .8.097 1.112.292l1.513.942c.307.19.863.19 1.168 0l2.127-1.325v-1.812l-1.599.995c-.624.39-1.601.389-2.226 0l-1.513-.942c-.306-.19-.863-.19-1.168 0l-1.509.941c-.624.389-1.603.389-2.227 0l-1.508-.941c-.306-.19-.862-.19-1.168 0l-1.508.941c-.624.389-1.603.39-2.227-.001l-1.505-.94c-.305-.19-.861-.19-1.167 0l-1.508.941c-.624.389-1.603.389-2.227 0l-1.508-.941c-.306-.19-.862-.19-1.167 0l-1.508.941c-.624.39-1.601.39-2.226 0l-1.505-.94c-.306-.191-.862-.191-1.167 0l-1.508.941c-.624.39-1.601.39-2.226 0l-1.505-.94c-.305-.19-.861-.19-1.166 0l-1.507.941c-.623.39-1.601.39-2.226-.001l-1.503-.939c-.306-.19-.861-.191-1.166 0l-1.507.941c-.623.39-1.601.39-2.226-.001l-1.503-.939c-.305-.19-.861-.191-1.166 0l-1.496.936c-.625.391-1.603.391-2.226 0l-1.587-.991v1.811l2.117 1.323c.305.19.861.19 1.166 0l1.501-.939c.624-.391 1.602-.39 2.226 0l1.503.94c.305.19.86.19 1.166 0l1.507-.941c.623-.39 1.601-.39 2.226.001l1.503.939c.306.19.861.191 1.166 0l1.507-.941c.624-.39 1.602-.39 2.226 0l1.505.94c.305.19.861.19 1.166 0l1.508-.941c.624-.39 1.601-.39 2.226 0l1.505.94c.306.191.862.191 1.167 0l1.508-.941c.624-.39 1.601-.39 2.226 0l1.508.941c.305.19.862.191 1.168 0l1.508-.941c.624-.389 1.603-.39 2.227.001l1.505.94c.305.19.861.19 1.167 0l1.508-.941c.624-.389 1.603-.389 2.227 0l1.508.941c.305.19.862.191 1.168 0l1.509-.941c.31-.193.71-.29 1.111-.29z" fill="#63312d"/></svg>