<?xml version="1.0"?>
<svg xmlns="http://www.w3.org/2000/svg" xmlns:xlink="http://www.w3.org/1999/xlink" version="1.1" id="Capa_1" x="0px" y="0px" viewBox="0 0 512 512" style="enable-background:new 0 0 512 512;" xml:space="preserve" width="512px" height="512px"><g><g>
	<g>
		<path d="M333.978,0.016H29.998C13.457,0.016,0,13.473,0,30.014v451.971c0,16.541,13.457,29.998,29.998,29.998h172.5    c5.523,0,9.999-4.478,9.999-9.999c0-5.522-4.477-9.999-9.999-9.999h-172.5c-5.514,0-9.999-4.486-9.999-9.999V347.999h272.025    c5.523,0,9.999-4.478,9.999-9.999c0-5.522-4.477-9.999-9.999-9.999H19.999V183.983c0.196,0.011,0.391,0.03,0.59,0.03h323.389    v96.112c0,5.522,4.477,9.999,9.999,9.999s9.999-4.478,9.999-9.999V30.014C363.977,13.473,350.519,0.016,333.978,0.016z     M343.978,164.014H20.589c-0.199,0-0.394,0.018-0.59,0.03V30.014c0-5.513,4.486-9.999,9.999-9.999h303.98    c5.514,0,9.999,4.486,9.999,9.999V164.014z" data-original="#000000" class="active-path" data-old_color="#000000" fill="#FFFFFF"/>
	</g>
</g><g>
	<g>
		<path d="M161.467,431.988H83.462c-5.523,0-9.999,4.478-9.999,9.999s4.477,9.999,9.999,9.999h78.005    c5.523,0,9.999-4.478,9.999-9.999S166.989,431.988,161.467,431.988z" data-original="#000000" class="active-path" data-old_color="#000000" fill="#FFFFFF"/>
	</g>
</g><g>
	<g>
		<path d="M209.566,434.919c-1.86-1.86-4.44-2.93-7.07-2.93s-5.21,1.069-7.07,2.93c-1.86,1.861-2.93,4.44-2.93,7.07    c0,2.63,1.07,5.21,2.93,7.069c1.86,1.86,4.44,2.931,7.07,2.931s5.21-1.071,7.07-2.931c1.86-1.859,2.93-4.439,2.93-7.069    C212.496,439.359,211.426,436.779,209.566,434.919z" data-original="#000000" class="active-path" data-old_color="#000000" fill="#FFFFFF"/>
	</g>
</g><g>
	<g>
		<path d="M202.51,383.991H83.461c-5.523,0-9.999,4.478-9.999,9.999c0,5.522,4.477,9.999,9.999,9.999H202.51    c5.523,0,9.999-4.478,9.999-9.999C212.509,388.469,208.033,383.991,202.51,383.991z" data-original="#000000" class="active-path" data-old_color="#000000" fill="#FFFFFF"/>
	</g>
</g><g>
	<g>
		<path d="M292.024,270.126H83.461c-5.523,0-9.999,4.478-9.999,9.999s4.477,9.999,9.999,9.999h208.565    c5.523,0,9.999-4.478,9.999-9.999S297.547,270.126,292.024,270.126z" data-original="#000000" class="active-path" data-old_color="#000000" fill="#FFFFFF"/>
	</g>
</g><g>
	<g>
		<path d="M292.035,222.129H83.461c-5.523,0-9.999,4.478-9.999,9.999c0,5.522,4.477,9.999,9.999,9.999h208.575    c5.523,0,9.999-4.478,9.999-9.999C302.035,226.606,297.558,222.129,292.035,222.129z" data-original="#000000" class="active-path" data-old_color="#000000" fill="#FFFFFF"/>
	</g>
</g><g>
	<g>
		<path d="M292.03,102.009h-98.599c-5.523,0-9.999,4.478-9.999,9.999c0,5.522,4.477,9.999,9.999,9.999h98.599    c5.523,0,9.999-4.478,9.999-9.999C302.03,106.487,297.553,102.009,292.03,102.009z" data-original="#000000" class="active-path" data-old_color="#000000" fill="#FFFFFF"/>
	</g>
</g><g>
	<g>
		<path d="M292.035,54.013h-58.562c-5.523,0-9.999,4.478-9.999,9.999c0,5.522,4.477,9.999,9.999,9.999h58.562    c5.523,0,9.999-4.478,9.999-9.999C302.035,58.49,297.558,54.013,292.035,54.013z" data-original="#000000" class="active-path" data-old_color="#000000" fill="#FFFFFF"/>
	</g>
</g><g>
	<g>
		<path d="M200.497,56.942c-1.86-1.86-4.43-2.93-7.07-2.93c-2.63,0-5.21,1.069-7.07,2.93c-1.86,1.86-2.93,4.44-2.93,7.07    c0,2.63,1.07,5.21,2.93,7.069c1.86,1.861,4.44,2.931,7.07,2.931c2.64,0,5.21-1.07,7.07-2.931c1.87-1.859,2.93-4.439,2.93-7.069    C203.427,61.382,202.367,58.802,200.497,56.942z" data-original="#000000" class="active-path" data-old_color="#000000" fill="#FFFFFF"/>
	</g>
</g><g>
	<g>
		<path d="M146.851,49.645c-6.302-6.302-14.68-9.771-23.591-9.771s-17.29,3.471-23.591,9.771L64.084,85.229    c-6.302,6.302-9.771,14.68-9.771,23.592c0,8.911,3.471,17.29,9.771,23.591c6.301,6.302,14.68,9.771,23.591,9.771    s17.29-3.471,23.591-9.771l35.584-35.584C159.858,83.82,159.858,62.654,146.851,49.645z M97.126,118.27    c-2.524,2.524-5.881,3.915-9.45,3.915s-6.926-1.391-9.45-3.915c-5.211-5.211-5.211-13.689,0-18.9l10.721-10.721l18.901,18.9    L97.126,118.27z M132.709,82.687l-10.721,10.721l-18.901-18.9l10.721-10.721c2.605-2.606,6.028-3.909,9.45-3.909    s6.846,1.304,9.45,3.909C137.92,68.998,137.92,77.476,132.709,82.687z" data-original="#000000" class="active-path" data-old_color="#000000" fill="#FFFFFF"/>
	</g>
</g><g>
	<g>
		<path d="M493.841,406.15l-79.191-79.19c-11.709-11.709-27.278-18.158-43.838-18.158s-32.128,6.449-43.837,18.158    s-18.159,27.277-18.159,43.838c0,6.119,0.886,12.1,2.587,17.803c-2.815-0.393-5.686-0.611-8.606-0.611    c-34.186,0-61.997,27.811-61.997,61.997c0,34.186,27.811,61.997,61.997,61.997c33.378,0,60.665-26.518,61.936-59.59l41.433,41.432    c11.709,11.709,27.278,18.158,43.838,18.158s32.128-6.449,43.837-18.158S512,466.549,512,449.988    C512,433.428,505.55,417.859,493.841,406.15z M292.797,490.771c-18.344-4.498-31.999-21.073-31.999-40.785    c0-19.712,13.654-36.287,31.999-40.786V490.771z M312.796,490.772v-81.572c18.345,4.499,31.999,21.074,31.999,40.786    C344.795,469.7,331.141,486.274,312.796,490.772z M341.116,400.494c-7.933-7.932-12.301-18.478-12.301-29.696    s4.369-21.766,12.301-29.697c7.932-7.934,18.479-12.301,29.697-12.301s21.765,4.368,29.697,12.301l32.524,32.524l-59.393,59.393    L341.116,400.494z M479.7,479.684c-7.933,7.933-18.479,12.301-29.696,12.301c-11.218,0-21.765-4.368-29.697-12.301l-32.524-32.524    l59.393-59.393l32.525,32.525c7.932,7.932,12.301,18.478,12.301,29.696S487.633,471.752,479.7,479.684z" data-original="#000000" class="active-path" data-old_color="#000000" fill="#FFFFFF"/>
	</g>
</g></g> </svg>
