<svg enable-background="new 0 0 64 64" height="512" viewBox="0 0 64 64" width="512" xmlns="http://www.w3.org/2000/svg"><path d="m20.444 3.175-9.296 9.296 11.84 11.84 9.295-9.297z" fill="#f9dd9d"/><path d="m20.444 5.979 10.436 10.438 1.403-1.403-11.839-11.839-9.296 9.296 1.403 1.403z" fill="#ffeecf"/><path d="m22.987 24.811c-.133 0-.26-.053-.354-.146l-11.84-11.84c-.094-.094-.146-.221-.146-.354s.053-.26.146-.354l9.296-9.296c.195-.195.512-.195.707 0l11.84 11.839c.195.195.195.512 0 .707l-9.295 9.297c-.094.094-.221.147-.354.147zm-11.133-12.34 11.133 11.133 8.588-8.59-11.131-11.132z" fill="#63312d"/><path d="m30.978 20.987-2.018 2.019-2.333-2.336 2.017-2.017z" fill="#f8f3f3"/><path d="m28.96 23.506c-.133 0-.26-.053-.354-.146l-2.333-2.336c-.195-.195-.195-.512 0-.707l2.018-2.017c.195-.195.512-.195.707 0l2.333 2.334c.195.195.195.512 0 .707l-2.018 2.019c-.093.093-.22.146-.353.146zm-1.627-2.836 1.626 1.629 1.311-1.312-1.626-1.627z" fill="#63312d"/><path d="m21.98 10.719h2.789v2.729h-2.789z" fill="#f8f3f3" transform="matrix(.707 -.707 .707 .707 -1.697 20.071)"/><path d="m18.866 7.606h2.79v2.728h-2.79z" fill="#f8f3f3" transform="matrix(.707 -.707 .707 .707 -.408 16.955)"/><path d="m25.093 13.832h2.79v2.729h-2.79z" fill="#f8f3f3" transform="matrix(.707 -.707 .707 .707 -2.988 23.178)"/><g fill="#63312d"><path d="m23.353 14.534c-.133 0-.26-.053-.354-.146l-1.93-1.931c-.094-.094-.146-.221-.146-.354s.053-.26.146-.354l1.973-1.971c.195-.195.512-.195.707 0l1.929 1.929c.094.094.146.221.146.354s-.053.26-.146.354l-1.973 1.973c-.092.093-.219.146-.352.146zm-1.223-2.43 1.223 1.224 1.266-1.266-1.222-1.222z"/><path d="m20.239 11.42c-.128 0-.256-.049-.354-.146l-1.929-1.928c-.195-.195-.195-.512 0-.707l1.972-1.974c.187-.187.519-.188.707 0l1.93 1.93c.094.094.146.221.146.354s-.053.26-.146.354l-1.973 1.972c-.097.096-.225.145-.353.145zm-1.221-2.428 1.222 1.221 1.266-1.265-1.223-1.223z"/><path d="m26.467 17.648c-.133 0-.26-.053-.354-.146l-1.93-1.931c-.195-.195-.195-.512 0-.707l1.973-1.973c.094-.094.221-.146.354-.146.133 0 .26.053.354.146l1.929 1.93c.195.195.195.512 0 .707l-1.972 1.974c-.094.094-.221.146-.354.146zm-1.223-2.43 1.223 1.224 1.265-1.267-1.222-1.223z"/></g><path d="m18.662 14.037h2.789v2.729h-2.789z" fill="#f8f3f3" transform="matrix(.707 -.707 .707 .707 -5.015 18.7)"/><path d="m15.549 10.924h2.789v2.728h-2.789z" fill="#f8f3f3" transform="matrix(.707 -.707 .707 .707 -3.728 15.572)"/><path d="m21.775 17.15h2.79v2.729h-2.79z" fill="#f8f3f3" transform="matrix(.707 -.707 .707 .707 -6.306 21.802)"/><path d="m20.035 17.852c-.128 0-.256-.049-.354-.146l-1.929-1.929c-.094-.094-.146-.221-.146-.354s.053-.26.146-.354l1.972-1.972c.195-.195.512-.195.707 0l1.931 1.93c.094.094.146.221.146.354s-.053.26-.146.354l-1.973 1.971c-.098.097-.226.146-.354.146zm-1.222-2.429 1.222 1.222 1.266-1.264-1.223-1.223z" fill="#63312d"/><path d="m16.921 14.738c-.128 0-.256-.049-.354-.146l-1.929-1.929c-.195-.195-.195-.512 0-.707l1.972-1.973c.094-.094.221-.146.354-.146.133 0 .26.053.354.146l1.929 1.931c.094.094.146.221.146.354s-.053.26-.146.354l-1.973 1.971c-.097.096-.225.145-.353.145zm-1.221-2.428 1.222 1.222 1.266-1.264-1.222-1.224z" fill="#63312d"/><path d="m23.148 20.966c-.133 0-.26-.053-.354-.146l-1.929-1.93c-.195-.195-.195-.512 0-.707l1.972-1.973c.188-.188.52-.188.707 0l1.93 1.93c.195.195.195.512 0 .707l-1.973 1.973c-.093.093-.22.146-.353.146zm-1.222-2.43 1.222 1.223 1.266-1.266-1.223-1.223z" fill="#63312d"/><path d="m19.005 46.492 9.004-6.197-4.353-4.355-6.198 9.004z" fill="#f8f3f3"/><path d="m19.005 46.992c-.129 0-.257-.05-.354-.146l-1.547-1.548c-.17-.171-.195-.438-.059-.637l6.197-9.004c.084-.123.219-.201.367-.215.145-.01.293.04.399.145l4.353 4.354c.105.105.158.251.145.399-.014.147-.092.282-.214.366l-9.003 6.197c-.086.06-.185.089-.284.089zm-.899-2.107.958.96 8.166-5.621-3.503-3.505z" fill="#63312d"/><path d="m15.13 44.619c1.163-1.163 3.047-1.163 4.21 0 1.163 1.162 1.162 3.046 0 4.209-1.163 1.163-3.046 1.163-4.209 0s-1.163-3.047-.001-4.209z" fill="#84dbff"/><path d="m16.534 46.022c.915-.916 2.274-1.1 3.379-.573-.142-.298-.326-.583-.573-.83-1.163-1.163-3.047-1.163-4.21 0-1.163 1.162-1.162 3.046.001 4.209.247.247.532.43.83.572-.526-1.104-.343-2.462.573-3.378z" fill="#caf4ff"/><path d="m17.235 50.2c-.928 0-1.801-.361-2.458-1.019s-1.019-1.53-1.019-2.458c0-.929.361-1.802 1.018-2.458 1.313-1.314 3.604-1.314 4.917 0 .657.656 1.019 1.529 1.018 2.458 0 .928-.362 1.801-1.019 2.458s-1.528 1.019-2.457 1.019zm0-5.953c-.662 0-1.284.258-1.751.726-.468.468-.725 1.089-.725 1.751 0 .661.258 1.283.726 1.751.936.936 2.566.936 3.502 0 .468-.468.726-1.09.726-1.751 0-.662-.257-1.283-.725-1.751s-1.091-.726-1.753-.726z" fill="#63312d"/><path d="m36.764 39.173 8.947-8.946c.503-.506.516-1.399.132-2.44 1.386-1.524 1.354-3.88-.118-5.352l-4.21-4.208-4.764 4.764.321.32-8.084 8.085c-4.733-1.771-10.27-.764-14.075 3.039l18.813 18.813c3.805-3.808 4.81-9.343 3.038-14.075z" fill="#db785a"/><path d="m33.726 53.748c-.132 0-.26-.053-.354-.146l-18.812-18.814c-.094-.094-.146-.221-.146-.354s.053-.26.146-.354c3.735-3.734 9.314-4.997 14.299-3.264l7.508-7.508c-.074-.09-.115-.202-.115-.319 0-.133.053-.26.146-.354l4.764-4.764c.195-.195.512-.195.707 0l4.21 4.208c1.582 1.582 1.704 4.08.329 5.813.36 1.151.242 2.098-.342 2.685l-8.724 8.723c1.734 4.983.471 10.563-3.263 14.3-.094.095-.221.148-.353.148zm-18.099-19.307 18.091 18.093c3.26-3.53 4.276-8.649 2.577-13.186-.069-.184-.024-.391.115-.529l8.947-8.946c.334-.336.341-1.034.016-1.913-.064-.175-.026-.371.099-.509 1.218-1.34 1.173-3.388-.102-4.663l-3.856-3.854-4.058 4.058c.074.09.115.202.115.319 0 .133-.053.26-.146.354l-8.084 8.085c-.138.139-.346.181-.529.115-4.535-1.699-9.655-.683-13.185 2.576z" fill="#63312d"/><path d="m45.388 35.397-2.018 2.019-4.642-4.642 2.018-2.018z" fill="#f8f3f3"/><path d="m43.371 37.916c-.133 0-.26-.053-.354-.146l-4.642-4.642c-.195-.195-.195-.512 0-.707l2.018-2.018c.195-.195.512-.195.707 0l4.642 4.641c.195.195.195.512 0 .707l-2.018 2.019c-.094.093-.221.146-.353.146zm-3.935-5.142 3.935 3.935 1.311-1.312-3.935-3.934z" fill="#63312d"/><path d="m32.554 34.963 8.948-8.948c.503-.501.517-1.397.132-2.437 1.385-1.526 1.354-3.879-.119-5.351-1.473-1.474-3.827-1.505-5.351-.119-1.039-.385-1.935-.372-2.438.133l-8.948 8.946c-4.733-1.771-10.269-.767-14.075 3.04l18.812 18.811c3.806-3.808 4.812-9.343 3.039-14.075z" fill="#f9a287"/><path d="m26.181 28.589 8.948-8.946c.503-.505 1.399-.516 2.438-.132 1.273-1.155 3.115-1.312 4.549-.48-.166-.285-.355-.561-.6-.804-1.473-1.474-3.827-1.505-5.351-.119-1.039-.385-1.935-.372-2.438.133l-8.948 8.946c-4.733-1.771-10.269-.767-14.075 3.04l1.404 1.402c3.804-3.805 9.341-4.812 14.073-3.04z" fill="#ffc8bb"/><path d="m29.515 49.537c-.133 0-.26-.053-.354-.146l-18.811-18.811c-.195-.195-.195-.512 0-.707 3.733-3.735 9.312-4.998 14.299-3.265l8.723-8.722c.584-.588 1.531-.708 2.684-.344 1.733-1.375 4.23-1.252 5.812.33 1.581 1.58 1.703 4.078.33 5.812.362 1.153.243 2.1-.344 2.685l-8.723 8.723c1.734 4.983.471 10.563-3.264 14.299-.092.093-.219.146-.352.146zm-18.098-19.304 18.091 18.09c3.261-3.529 4.277-8.648 2.578-13.185-.069-.184-.024-.391.115-.529l8.948-8.948c.331-.33.337-1.044.017-1.909-.065-.175-.027-.372.099-.51 1.216-1.341 1.171-3.389-.102-4.662-1.276-1.276-3.323-1.32-4.662-.103-.139.126-.335.165-.51.099-.878-.326-1.575-.32-1.909.017l-8.949 8.947c-.139.139-.345.181-.529.115-4.54-1.7-9.659-.683-13.187 2.578z" fill="#63312d"/><path d="m40.501 16.112h1v13.665h-1z" fill="#63312d" transform="matrix(.707 -.707 .707 .707 -4.215 35.714)"/><path d="m30.271 24.704h1v16.951h-1z" fill="#63312d" transform="matrix(.707 -.707 .707 .707 -14.449 31.476)"/><path d="m7.307 56.648c-2.652-2.65-4.112-6.175-4.112-9.926h1.984c0 3.22 1.254 6.248 3.531 8.522 2.277 2.277 5.304 3.531 8.523 3.533v1.983c-3.749.001-7.275-1.459-9.926-4.112z" fill="#f8f3f3"/><path d="m10.977 52.98c-1.673-1.672-2.593-3.896-2.593-6.258h1.985c-.001 1.833.713 3.556 2.01 4.854 1.297 1.296 3.021 2.011 4.854 2.012l-.001 1.983c-2.361.001-4.583-.919-6.255-2.591z" fill="#f8f3f3"/><path d="m17.233 61.262c-3.884-.001-7.535-1.514-10.279-4.26-2.746-2.744-4.258-6.395-4.259-10.279 0-.133.053-.26.146-.354s.221-.146.354-.146h1.984c.276 0 .5.224.5.5 0 3.088 1.203 5.989 3.385 8.169 2.182 2.182 5.083 3.385 8.17 3.387.276 0 .5.224.5.5v1.983c0 .133-.053.26-.146.354s-.222.146-.355.146zm-13.529-14.039c.124 3.43 1.518 6.635 3.957 9.072 2.438 2.438 5.643 3.833 9.072 3.958v-.984c-3.166-.125-6.124-1.417-8.376-3.67-2.253-2.25-3.544-5.208-3.668-8.376z" fill="#63312d"/><path d="m17.233 56.072c-2.496 0-4.843-.973-6.609-2.738-1.767-1.766-2.739-4.113-2.739-6.611 0-.276.224-.5.5-.5h1.985c.133 0 .26.053.354.146s.146.221.146.354c-.001 1.698.661 3.297 1.864 4.501 1.203 1.202 2.802 1.864 4.501 1.865.276 0 .5.224.5.5l-.001 1.983c-.001.277-.225.5-.501.5zm-8.334-8.849c.12 2.043.973 3.946 2.432 5.404 1.459 1.458 3.361 2.311 5.403 2.431v-.985c-1.778-.12-3.434-.869-4.708-2.142-1.273-1.274-2.022-2.931-2.14-4.708z" fill="#63312d"/><path d="m49.028 31.758-9.296 9.297 11.839 11.839 9.296-9.295z" fill="#f9dd9d"/><path d="m49.039 34.576 10.436 10.437 1.403-1.404-11.839-11.839-9.296 9.296 1.403 1.404z" fill="#ffeecf"/><path d="m51.571 53.394c-.128 0-.256-.049-.354-.146l-11.839-11.84c-.195-.195-.195-.512 0-.707l9.296-9.297c.188-.188.52-.188.707 0l11.839 11.841c.094.094.146.221.146.354s-.053.26-.146.354l-9.296 9.295c-.097.097-.225.146-.353.146zm-11.133-12.339 11.132 11.132 8.589-8.588-11.131-11.134z" fill="#63312d"/><path d="m50.564 39.303h2.789v2.729h-2.789z" fill="#f8f3f3" transform="matrix(.707 -.707 .707 .707 -13.535 48.677)"/><path d="m47.451 36.19h2.789v2.727h-2.789z" fill="#f8f3f3" transform="matrix(.707 -.707 .707 .707 -12.247 45.546)"/><path d="m53.677 42.417h2.789v2.728h-2.789z" fill="#f8f3f3" transform="matrix(.707 -.707 .707 .707 -14.826 51.781)"/><path d="m51.937 43.118c-.133 0-.26-.053-.354-.146l-1.929-1.93c-.195-.195-.195-.512 0-.707l1.972-1.972c.195-.195.512-.195.707 0l1.93 1.929c.094.094.146.221.146.354s-.053.26-.146.354l-1.973 1.973c-.093.092-.22.145-.353.145zm-1.222-2.43 1.222 1.223 1.266-1.266-1.223-1.222z" fill="#63312d"/><path d="m48.824 40.004c-.128 0-.256-.049-.354-.146l-1.929-1.928c-.094-.094-.146-.221-.146-.354s.053-.26.146-.354l1.972-1.973c.187-.188.519-.188.707 0l1.929 1.929c.094.094.146.221.146.354s-.053.26-.146.354l-1.972 1.972c-.097.097-.225.146-.353.146zm-1.222-2.428 1.222 1.221 1.265-1.265-1.222-1.222z" fill="#63312d"/><path d="m55.05 46.23c-.128 0-.256-.049-.354-.146l-1.929-1.928c-.094-.094-.146-.221-.146-.354s.053-.26.146-.354l1.972-1.973c.195-.195.512-.195.707 0l1.93 1.929c.094.094.146.221.146.354s-.053.26-.146.354l-1.973 1.972c-.097.098-.225.146-.353.146zm-1.222-2.427 1.222 1.221 1.266-1.265-1.223-1.222z" fill="#63312d"/><path d="m47.246 42.621h2.789v2.728h-2.789z" fill="#f8f3f3" transform="matrix(.707 -.707 .707 .707 -16.856 47.26)"/><path d="m44.133 39.508h2.789v2.728h-2.789z" fill="#f8f3f3" transform="matrix(.707 -.707 .707 .707 -15.566 44.172)"/><path d="m50.359 45.735h2.789v2.728h-2.789z" fill="#f8f3f3" transform="matrix(.707 -.707 .707 .707 -18.144 50.418)"/><path d="m48.619 46.436c-.133 0-.26-.053-.354-.146l-1.929-1.93c-.195-.195-.195-.512 0-.707l1.972-1.972c.094-.094.221-.146.354-.146.133 0 .26.053.354.146l1.929 1.93c.195.195.195.512 0 .707l-1.972 1.972c-.094.093-.221.146-.354.146zm-1.222-2.43 1.222 1.223 1.265-1.265-1.222-1.223z" fill="#63312d"/><path d="m45.505 43.323c-.133 0-.26-.053-.354-.146l-1.929-1.93c-.195-.195-.195-.512 0-.707l1.972-1.972c.195-.195.512-.195.707 0l1.929 1.929c.094.094.146.221.146.354s-.053.26-.146.354l-1.972 1.973c-.093.093-.22.145-.353.145zm-1.221-2.429 1.222 1.223 1.265-1.266-1.222-1.222z" fill="#63312d"/><path d="m51.732 49.549c-.128 0-.256-.049-.354-.146l-1.929-1.928c-.195-.195-.195-.512 0-.707l1.972-1.974c.188-.188.52-.188.707 0l1.93 1.931c.094.094.146.221.146.354s-.053.26-.146.354l-1.972 1.971c-.098.096-.226.145-.354.145zm-1.222-2.428 1.222 1.221 1.265-1.264-1.223-1.224z" fill="#63312d"/></svg>