<svg enable-background="new 0 0 64 64" height="512" viewBox="0 0 64 64" width="512" xmlns="http://www.w3.org/2000/svg"><path d="m20.559 46.116h1v14.23h-1z" fill="#63312d"/><path d="m22.761 59.304-1.703-1.936-1.702 1.936-.751-.66 2.078-2.363c.189-.216.562-.216.751 0l2.078 2.363z" fill="#63312d"/><path d="m21.06 50.352c-.144 0-.281-.062-.375-.17l-2.078-2.364.751-.66 1.703 1.937 1.702-1.937.751.66-2.078 2.364c-.096.108-.232.17-.376.17z" fill="#63312d"/><path d="m13.944 52.731h14.23v1h-14.23z" fill="#63312d"/><path d="m15.646 55.685-.66-.751 1.936-1.703-1.936-1.703.66-.751 2.363 2.078c.108.095.17.232.17.375s-.062.281-.17.375z" fill="#63312d"/><path d="m26.472 55.685-2.364-2.077c-.108-.095-.17-.231-.17-.375s.062-.281.17-.375l2.364-2.078.66.751-1.937 1.703 1.937 1.702z" fill="#63312d"/><path d="m22.585 53.231c0 .844-.684 1.526-1.526 1.526-.843 0-1.526-.683-1.526-1.526s.684-1.525 1.526-1.525 1.526.682 1.526 1.525z" fill="#84dbff"/><g fill="#63312d"><path d="m21.059 55.257c-1.117 0-2.026-.909-2.026-2.026s.909-2.025 2.026-2.025 2.026.909 2.026 2.025c0 1.117-.909 2.026-2.026 2.026zm0-3.051c-.566 0-1.026.46-1.026 1.025 0 .566.46 1.026 1.026 1.026.565 0 1.026-.46 1.026-1.026 0-.565-.46-1.025-1.026-1.025z"/><path d="m31.16 35.477h1v14.229h-1z"/><path d="m33.362 48.666-1.703-1.937-1.703 1.937-.751-.66 2.079-2.364c.189-.216.562-.216.751 0l2.079 2.364z"/><path d="m31.662 39.712c-.144 0-.28-.062-.375-.17l-2.08-2.363.751-.66 1.704 1.937 1.702-1.937.752.66-2.078 2.363c-.096.108-.232.17-.376.17z"/><path d="m24.545 42.092h14.23v1h-14.23z"/><path d="m26.247 45.046-.66-.751 1.937-1.704-1.937-1.702.66-.751 2.364 2.077c.108.095.17.231.17.375s-.062.28-.17.375z"/><path d="m37.073 45.046-2.363-2.078c-.108-.095-.17-.232-.17-.375s.062-.281.17-.375l2.363-2.078.66.751-1.937 1.703 1.937 1.703z"/></g><path d="m33.185 42.592c0 .842-.683 1.525-1.526 1.525-.842 0-1.525-.684-1.525-1.525 0-.843.684-1.526 1.525-1.526.843 0 1.526.684 1.526 1.526z" fill="#84dbff"/><path d="m31.66 44.618c-1.117 0-2.025-.909-2.025-2.025 0-1.117.909-2.026 2.025-2.026 1.117 0 2.026.909 2.026 2.026 0 1.116-.909 2.025-2.026 2.025zm0-3.052c-.565 0-1.025.46-1.025 1.026 0 .565.46 1.025 1.025 1.025s1.026-.46 1.026-1.025c0-.566-.461-1.026-1.026-1.026z" fill="#63312d"/><path d="m10.573 35.477h1v14.229h-1z" fill="#63312d"/><path d="m9.37 48.666-.751-.66 2.079-2.364c.095-.108.232-.17.375-.17.144 0 .281.062.375.17l2.078 2.364-.751.66-1.703-1.937z" fill="#63312d"/><path d="m11.075 39.712c-.144 0-.28-.062-.375-.17l-2.08-2.363.751-.66 1.704 1.937 1.702-1.937.751.66-2.078 2.363c-.095.108-.231.17-.375.17z" fill="#63312d"/><path d="m3.958 42.092h14.23v1h-14.23z" fill="#63312d"/><path d="m5.66 45.046-.66-.751 1.937-1.704-1.937-1.701.66-.751 2.364 2.077c.108.095.17.231.17.375s-.062.28-.17.375z" fill="#63312d"/><path d="m16.486 45.046-2.363-2.078c-.108-.095-.17-.232-.17-.375s.062-.281.17-.375l2.363-2.078.66.751-1.936 1.703 1.936 1.703z" fill="#63312d"/><path d="m12.598 42.592c0 .842-.683 1.525-1.525 1.525s-1.525-.684-1.525-1.525c0-.843.683-1.526 1.525-1.526s1.525.684 1.525 1.526z" fill="#84dbff"/><path d="m11.073 44.618c-1.117 0-2.025-.909-2.025-2.025 0-1.117.908-2.026 2.025-2.026s2.025.909 2.025 2.026c0 1.116-.909 2.025-2.025 2.025zm0-3.052c-.565 0-1.025.46-1.025 1.026 0 .565.46 1.025 1.025 1.025s1.025-.46 1.025-1.025c0-.566-.46-1.026-1.025-1.026z" fill="#63312d"/><path d="m41.799 46.116h1v14.23h-1z" fill="#63312d"/><path d="m44.002 59.304-1.703-1.936-1.703 1.936-.75-.66 2.078-2.363c.189-.216.561-.216.75 0l2.078 2.363z" fill="#63312d"/><path d="m42.3 50.352c-.144 0-.28-.062-.376-.17l-2.078-2.364.752-.66 1.702 1.937 1.701-1.937.752.66-2.077 2.364c-.096.108-.233.17-.376.17z" fill="#63312d"/><path d="m35.184 52.731h14.23v1h-14.23z" fill="#63312d"/><path d="m36.885 55.685-.66-.751 1.938-1.703-1.938-1.703.66-.751 2.365 2.078c.108.095.17.231.17.375s-.062.281-.17.375z" fill="#63312d"/><path d="m47.713 55.685-2.364-2.077c-.108-.095-.17-.231-.17-.375s.062-.281.17-.375l2.364-2.078.66.751-1.937 1.703 1.937 1.702z" fill="#63312d"/><path d="m43.824 53.231c0 .844-.683 1.526-1.525 1.526s-1.525-.683-1.525-1.526.684-1.525 1.525-1.525c.843 0 1.525.682 1.525 1.525z" fill="#84dbff"/><path d="m42.299 55.257c-1.117 0-2.025-.909-2.025-2.026s.908-2.025 2.025-2.025 2.025.909 2.025 2.025c0 1.117-.908 2.026-2.025 2.026zm0-3.051c-.565 0-1.025.46-1.025 1.025 0 .566.46 1.026 1.025 1.026s1.025-.46 1.025-1.026c0-.565-.46-1.025-1.025-1.025z" fill="#63312d"/><path d="m52.4 35.477h1v14.229h-1z" fill="#63312d"/><path d="m51.195 48.666-.75-.66 2.08-2.364c.095-.108.231-.17.375-.17.144 0 .28.062.376.17l2.078 2.364-.752.66-1.702-1.937z" fill="#63312d"/><path d="m52.901 39.712c-.144 0-.28-.062-.375-.17l-2.079-2.363.75-.66 1.704 1.936 1.701-1.936.752.66-2.077 2.363c-.095.108-.232.17-.376.17z" fill="#63312d"/><path d="m45.785 42.092h14.229v1h-14.229z" fill="#63312d"/><path d="m47.486 45.046-.66-.751 1.937-1.704-1.937-1.702.66-.751 2.363 2.077c.108.095.17.231.17.375s-.062.28-.17.375z" fill="#63312d"/><path d="m58.313 45.046-2.364-2.078c-.108-.095-.17-.232-.17-.375s.062-.281.17-.375l2.364-2.078.66.751-1.937 1.703 1.937 1.703z" fill="#63312d"/><path d="m54.426 42.592c0 .842-.684 1.525-1.525 1.525-.843 0-1.525-.684-1.525-1.525 0-.843.683-1.526 1.525-1.526.841 0 1.525.684 1.525 1.526z" fill="#84dbff"/><path d="m52.9 44.618c-1.117 0-2.025-.909-2.025-2.025 0-1.117.908-2.026 2.025-2.026s2.025.909 2.025 2.026c.001 1.116-.907 2.025-2.025 2.025zm0-3.052c-.565 0-1.025.46-1.025 1.026 0 .565.46 1.025 1.025 1.025s1.025-.46 1.025-1.025c.001-.566-.459-1.026-1.025-1.026z" fill="#63312d"/><path d="m52.264 14.922h-2.329c.005-.13.015-.26.015-.392 0-6.247-5.065-11.312-11.313-11.312h-6.137v1.816c-3.069 1.989-5.117 5.42-5.172 9.336-.851-1.129-2.198-1.861-3.72-1.861h-6.038v5.25c-.37-.06-.747-.099-1.134-.099-3.96 0-7.172 3.211-7.172 7.172s3.211 7.172 7.172 7.172h35.828c4.716 0 8.541-3.824 8.541-8.541s-3.826-8.541-8.541-8.541z" fill="#52b8d9"/><path d="m52.264 32.504h-35.828c-4.23 0-7.672-3.441-7.672-7.672s3.441-7.672 7.672-7.672c.206 0 .416.01.634.03v-4.681c0-.276.224-.5.5-.5h6.039c1.226 0 2.378.424 3.294 1.19.384-3.403 2.231-6.481 5.097-8.433v-1.548c0-.276.224-.5.5-.5h6.136c6.478 0 11.754 5.24 11.812 11.704h1.815c4.985 0 9.041 4.056 9.041 9.041s-4.055 9.041-9.04 9.041zm-35.828-14.344c-3.679 0-6.672 2.993-6.672 6.672s2.993 6.672 6.672 6.672h35.828c4.434 0 8.041-3.607 8.041-8.041s-3.607-8.041-8.041-8.041h-2.329c-.136 0-.266-.055-.36-.153s-.145-.229-.14-.365l.007-.136c.004-.079.008-.157.008-.237 0-5.962-4.851-10.812-10.813-10.812h-5.636v1.316c0 .169-.086.328-.229.419-3.045 1.973-4.894 5.309-4.944 8.924-.003.214-.142.402-.345.468-.202.067-.426-.003-.555-.174-.796-1.056-2.007-1.662-3.321-1.662h-5.537v4.75c0 .146-.064.286-.176.381s-.262.137-.404.113c-.382-.064-.727-.094-1.054-.094z" fill="#63312d"/><path d="m46.264 14.922c-.813 0-1.596.121-2.341.333.015-.24.026-.48.026-.724 0-6.247-5.065-11.312-11.313-11.312-6.193 0-11.222 4.979-11.308 11.152-.851-1.129-2.198-1.861-3.72-1.861-2.575 0-4.662 2.087-4.662 4.662 0 .34.039.67.107.989-.812-.319-1.693-.5-2.618-.5-3.96 0-7.172 3.211-7.172 7.172s3.211 7.172 7.172 7.172h35.828c4.716 0 8.541-3.824 8.541-8.541.001-4.718-3.825-8.542-8.54-8.542z" fill="#84dbff"/><path d="m5.264 26.832c0-3.961 3.211-7.172 7.172-7.172.925 0 1.806.181 2.618.5-.069-.319-.107-.649-.107-.989 0-2.575 2.087-4.662 4.662-4.662 1.522 0 2.869.732 3.72 1.861.086-6.173 5.114-11.152 11.308-11.152 2.613 0 5.013.895 6.928 2.384-2.068-2.663-5.295-4.384-8.928-4.384-6.193 0-11.222 4.979-11.308 11.152-.851-1.129-2.198-1.861-3.72-1.861-2.575 0-4.662 2.087-4.662 4.662 0 .34.039.67.107.989-.812-.319-1.693-.5-2.618-.5-3.96 0-7.172 3.211-7.172 7.172 0 2.492 1.272 4.685 3.201 5.971-.758-1.137-1.201-2.502-1.201-3.971z" fill="#caf4ff"/><path d="m46.264 32.504h-35.828c-4.23 0-7.672-3.441-7.672-7.672s3.441-7.672 7.672-7.672c.683 0 1.358.092 2.017.273-.004-.088-.007-.176-.007-.263 0-2.846 2.316-5.162 5.162-5.162 1.226 0 2.378.424 3.294 1.19.668-5.875 5.705-10.48 11.734-10.48 6.514 0 11.813 5.299 11.813 11.812v.08c.604-.125 1.212-.188 1.814-.188 4.985 0 9.041 4.056 9.041 9.041s-4.055 9.041-9.04 9.041zm-35.828-14.344c-3.679 0-6.672 2.993-6.672 6.672s2.993 6.672 6.672 6.672h35.828c4.434 0 8.041-3.607 8.041-8.041s-3.607-8.041-8.041-8.041c-.731 0-1.473.105-2.204.313-.155.043-.324.011-.45-.091s-.195-.258-.186-.42c.014-.23.025-.46.025-.694 0-5.962-4.851-10.812-10.813-10.812-5.877 0-10.726 4.782-10.808 10.659-.003.214-.142.402-.345.468-.202.067-.426-.003-.555-.174-.796-1.056-2.007-1.662-3.321-1.662-2.295 0-4.162 1.867-4.162 4.162 0 .291.032.588.096.884.039.18-.024.367-.165.486-.14.119-.334.153-.507.084-.784-.308-1.602-.465-2.433-.465z" fill="#63312d"/></svg>