<svg enable-background="new 0 0 64 64" height="512" viewBox="0 0 64 64" width="512" xmlns="http://www.w3.org/2000/svg"><path d="m52.264 14.922h-2.329c.005-.13.015-.26.015-.392 0-6.247-5.065-11.312-11.313-11.312h-6.137v1.816c-3.068 1.989-5.117 5.42-5.172 9.336-.851-1.129-2.197-1.861-3.72-1.861h-6.038v5.25c-.37-.06-.748-.099-1.135-.099-3.96 0-7.172 3.211-7.172 7.172s3.212 7.172 7.172 7.172h35.828c4.716 0 8.541-3.824 8.541-8.541.001-4.717-3.825-8.541-8.54-8.541z" fill="#52b8d9"/><path d="m52.264 32.504h-35.828c-4.23 0-7.672-3.441-7.672-7.672s3.441-7.672 7.672-7.672c.206 0 .416.01.635.03v-4.681c0-.276.224-.5.5-.5h6.038c1.226 0 2.378.424 3.293 1.19.384-3.403 2.232-6.481 5.098-8.433v-1.548c0-.276.224-.5.5-.5h6.137c6.478 0 11.754 5.24 11.812 11.704h1.815c4.985 0 9.041 4.056 9.041 9.041s-4.056 9.041-9.041 9.041zm-35.828-14.344c-3.679 0-6.672 2.993-6.672 6.672s2.993 6.672 6.672 6.672h35.828c4.434 0 8.041-3.607 8.041-8.041s-3.607-8.041-8.041-8.041h-2.329c-.136 0-.266-.055-.36-.153s-.145-.229-.14-.365l.007-.136c.004-.079.008-.157.008-.237 0-5.962-4.851-10.812-10.813-10.812h-5.637v1.316c0 .169-.086.328-.229.419-3.045 1.974-4.893 5.31-4.943 8.924-.003.214-.142.402-.345.468-.202.068-.426-.004-.555-.174-.796-1.056-2.006-1.662-3.32-1.662h-5.538v4.75c0 .146-.064.286-.176.381-.111.095-.26.137-.404.113-.382-.064-.727-.094-1.054-.094z" fill="#63312d"/><path d="m46.264 14.922c-.813 0-1.596.121-2.341.333.015-.24.026-.48.026-.724 0-6.247-5.065-11.312-11.313-11.312-6.193 0-11.223 4.979-11.309 11.152-.851-1.129-2.197-1.861-3.72-1.861-2.575 0-4.662 2.087-4.662 4.662 0 .34.038.67.107.989-.811-.319-1.692-.5-2.618-.5-3.96 0-7.172 3.211-7.172 7.172s3.212 7.172 7.172 7.172h35.828c4.716 0 8.541-3.824 8.541-8.541.002-4.718-3.824-8.542-8.539-8.542z" fill="#84dbff"/><path d="m5.264 26.832c0-3.961 3.212-7.172 7.172-7.172.926 0 1.807.181 2.618.5-.069-.319-.107-.649-.107-.989 0-2.575 2.087-4.662 4.662-4.662 1.523 0 2.869.732 3.72 1.861.086-6.173 5.115-11.152 11.309-11.152 2.613 0 5.013.895 6.928 2.384-2.068-2.663-5.295-4.384-8.928-4.384-6.193 0-11.223 4.979-11.309 11.152-.851-1.129-2.197-1.861-3.72-1.861-2.575 0-4.662 2.087-4.662 4.662 0 .34.038.67.107.989-.811-.319-1.692-.5-2.618-.5-3.96 0-7.172 3.211-7.172 7.172 0 2.492 1.273 4.685 3.201 5.971-.758-1.137-1.201-2.502-1.201-3.971z" fill="#caf4ff"/><path d="m46.264 32.504h-35.828c-4.23 0-7.672-3.441-7.672-7.672s3.441-7.672 7.672-7.672c.684 0 1.358.092 2.018.273-.005-.087-.007-.175-.007-.262 0-2.846 2.315-5.162 5.162-5.162 1.226 0 2.378.424 3.294 1.19.667-5.877 5.705-10.481 11.734-10.481 6.514 0 11.813 5.299 11.813 11.812v.08c.604-.125 1.212-.188 1.814-.188 4.985 0 9.041 4.056 9.041 9.041s-4.056 9.041-9.041 9.041zm-35.828-14.344c-3.679 0-6.672 2.993-6.672 6.672s2.993 6.672 6.672 6.672h35.828c4.434 0 8.041-3.607 8.041-8.041s-3.607-8.041-8.041-8.041c-.731 0-1.473.105-2.204.313-.155.043-.324.011-.45-.091s-.195-.258-.186-.42c.014-.23.025-.46.025-.694 0-5.962-4.851-10.812-10.813-10.812-5.878 0-10.727 4.782-10.809 10.659-.003.214-.142.402-.345.468-.202.068-.426-.004-.555-.174-.796-1.056-2.006-1.662-3.32-1.662-2.295 0-4.162 1.867-4.162 4.162 0 .292.032.59.096.883.039.18-.023.367-.164.487-.14.119-.337.152-.507.084-.784-.308-1.603-.465-2.434-.465z" fill="#63312d"/><path d="m39.422 21.656h-6l-7.684 22.619h9.495l-11.12 16.568h6l14.149-21.129h-9.262z" fill="#efc36a"/><path d="m30.113 61.343h-6c-.185 0-.354-.102-.441-.265s-.077-.361.026-.514l10.598-15.79h-8.558c-.161 0-.313-.078-.406-.209-.094-.131-.119-.299-.067-.452l7.684-22.619c.069-.203.26-.339.474-.339h6c.153 0 .299.07.394.191s.129.278.092.428l-4.271 17.439h8.625c.185 0 .354.102.441.265s.077.36-.026.514l-14.15 21.13c-.092.138-.248.221-.415.221zm-5.062-1h4.796l13.479-20.129h-8.326c-.153 0-.299-.07-.394-.191s-.129-.278-.092-.428l4.27-17.439h-5.004l-7.344 21.619h8.797c.185 0 .354.102.441.265s.077.361-.026.514z" fill="#63312d"/><path d="m33.422 21.656-13.684 22.619h9.494l-5.119 16.568 14.149-21.129h-9.262z" fill="#f9dd9d"/><path d="m33.422 21.656-13.684 22.619h2l10.324-17.065z" fill="#ffeecf"/><path d="m31.232 44.275h-2l-5.119 16.568 3.714-5.546z" fill="#ffeecf"/><path d="m24.113 61.343c-.072 0-.146-.016-.215-.049-.225-.106-.336-.362-.263-.599l4.919-15.921h-8.816c-.181 0-.347-.097-.436-.254s-.086-.35.008-.504l13.684-22.619c.128-.211.393-.295.619-.203.228.094.353.341.294.581l-4.271 17.439h8.625c.185 0 .354.102.441.265s.077.36-.026.514l-14.148 21.129c-.094.142-.253.221-.415.221zm-3.488-17.568h8.607c.159 0 .309.075.402.203.095.128.122.293.075.444l-4.109 13.301 11.725-17.51h-8.325c-.153 0-.299-.07-.394-.191s-.129-.278-.092-.428l3.645-14.887z" fill="#63312d"/></svg>