<svg enable-background="new 0 0 64 64" height="512" viewBox="0 0 64 64" width="512" xmlns="http://www.w3.org/2000/svg"><path d="m54.697 38.579-4.599 4.639-3.06 5.774-6.452 1.047-5.863 2.879h-5.687l-6.585-4.065-2.987-5.813-4.548-4.691.993-6.458-.918-6.468 4.599-4.639 3.058-5.775 6.633-3.927h5.686l5.83 2.949 6.439 1.117 2.985 5.813 4.55 4.691-.994 6.459z" fill="#efc36a"/><path d="m34.723 53.418h-5.687c-.093 0-.184-.026-.263-.075l-6.585-4.065c-.077-.048-.141-.116-.182-.197l-2.954-5.747-4.496-4.637c-.108-.112-.158-.27-.135-.424l.981-6.385-.907-6.395c-.021-.155.03-.311.14-.422l4.547-4.586 3.024-5.709c.043-.082.107-.149.187-.196l6.633-3.927c.077-.046.165-.07.255-.07h5.686c.078 0 .155.019.226.054l5.764 2.916 6.365 1.104c.155.027.288.125.359.264l2.951 5.748 4.499 4.638c.108.112.158.27.135.424l-.982 6.385.909 6.395c.021.155-.03.311-.14.422l-4.548 4.586-3.025 5.708c-.073.139-.207.234-.361.26l-6.379 1.034-5.796 2.847c-.07.032-.145.05-.221.05zm-5.545-1h5.429l5.759-2.828c.045-.022.092-.037.141-.045l6.207-1.006 2.943-5.554c.022-.043.052-.083.086-.118l4.425-4.463-.885-6.222c-.007-.048-.007-.098.001-.146l.956-6.213-4.378-4.513c-.034-.036-.063-.076-.085-.12l-2.871-5.592-6.193-1.074c-.049-.008-.097-.024-.141-.046l-5.724-2.896h-5.43l-6.394 3.785-2.993 5.65c-.022.043-.052.083-.086.118l-4.424 4.463.883 6.222c.007.049.007.098-.001.146l-.955 6.212 4.375 4.512c.034.036.063.076.085.12l2.924 5.689z" fill="#63312d"/><path d="m49.011 38.579-4.6 4.639-3.059 5.774-6.452 1.047-5.864 2.879-5.832-2.95-6.438-1.115-2.989-5.813-4.547-4.691.993-6.458-.918-6.468 4.598-4.639 3.06-5.775 6.449-1.047 5.869-2.88 5.83 2.949 6.44 1.117 2.984 5.813 4.55 4.691-.993 6.459z" fill="#f9dd9d"/><path d="m25.204 49.968-6.438-1.115-2.989-5.813-4.547-4.691.993-6.458-.918-6.468 4.598-4.639 3.06-5.775 6.449-1.047 4.854-2.382-.985-.498-5.869 2.88-6.449 1.047-3.06 5.775-4.598 4.639.918 6.468-.993 6.458 4.547 4.691 2.989 5.813 6.438 1.115 5.832 2.95 1.015-.499z" fill="#ffeecf"/><path d="m29.036 53.418c-.077 0-.154-.018-.226-.054l-5.766-2.916-6.364-1.103c-.155-.027-.288-.125-.359-.264l-2.955-5.747-4.495-4.637c-.108-.112-.158-.27-.135-.424l.98-6.385-.906-6.395c-.021-.155.03-.311.14-.422l4.547-4.586 3.025-5.709c.073-.139.207-.234.361-.26l6.376-1.035 5.802-2.847c.143-.069.306-.068.446.002l5.764 2.916 6.365 1.104c.155.027.288.125.359.264l2.951 5.748 4.498 4.638c.108.112.158.27.135.424l-.981 6.385.908 6.395c.021.155-.03.311-.14.422l-4.548 4.586-3.025 5.708c-.073.139-.207.234-.361.26l-6.378 1.034-5.797 2.847c-.07.034-.146.051-.221.051zm-11.939-5.016 6.192 1.073c.049.008.097.024.141.046l5.609 2.837 5.641-2.77c.045-.022.092-.037.141-.045l6.206-1.006 2.943-5.554c.022-.043.052-.083.086-.118l4.425-4.463-.884-6.222c-.007-.048-.007-.098.001-.146l.955-6.213-4.377-4.513c-.034-.036-.063-.076-.085-.12l-2.871-5.592-6.193-1.074c-.049-.008-.097-.024-.141-.046l-5.607-2.837-5.646 2.77c-.045.022-.092.037-.141.045l-6.204 1.007-2.943 5.555c-.022.043-.052.083-.086.118l-4.424 4.463.883 6.222c.007.048.007.098-.001.146l-.954 6.213 4.374 4.512c.034.036.063.076.085.12z" fill="#63312d"/><path d="m43.201 31.72c.154 7.756-6.006 14.169-13.762 14.324s-14.172-6.005-14.326-13.762c-.155-7.756 6.008-14.171 13.764-14.326s14.169 6.008 14.324 13.764z" fill="#f9a287"/><path d="m17.113 32.283c-.151-7.553 5.693-13.815 13.16-14.284-.46-.036-.926-.052-1.396-.043-7.756.155-13.919 6.57-13.764 14.326.154 7.756 6.57 13.917 14.326 13.762.203-.004.402-.03.604-.042-7.115-.559-12.784-6.434-12.93-13.719z" fill="#ffc8bb"/><g fill="#63312d"><path d="m29.151 46.547c-3.775 0-7.342-1.434-10.072-4.057-2.803-2.692-4.389-6.313-4.466-10.198-.16-8.02 6.233-14.675 14.254-14.836 3.877-.075 7.566 1.362 10.368 4.055 2.802 2.692 4.388 6.314 4.466 10.199.159 8.019-6.233 14.673-14.252 14.834-.098.002-.199.003-.298.003zm.014-28.093c-.093 0-.186.001-.278.003-7.469.149-13.423 6.347-13.273 13.816.072 3.617 1.549 6.99 4.159 9.497 2.608 2.506 5.999 3.841 9.657 3.775 7.467-.149 13.42-6.347 13.271-13.814-.072-3.618-1.549-6.991-4.158-9.498-2.542-2.443-5.863-3.779-9.378-3.779z"/><path d="m23.064 58.833h3.412v1h-3.412z" transform="matrix(.255 -.967 .967 .255 -38.917 68.159)"/><path d="m37.522 4.165h3.413v1h-3.413z" transform="matrix(.257 -.967 .967 .257 24.648 41.381)"/><path d="m4.165 23.061h1v3.414h-1z" transform="matrix(.257 -.967 .967 .257 -20.47 22.919)"/><path d="m58.834 37.519h1v3.415h-1z" transform="matrix(.256 -.967 .967 .256 6.227 86.543)"/><path d="m10.447 51.638h3.411v1.001h-3.411z" transform="matrix(.702 -.713 .713 .702 -33.521 24.21)"/><path d="m50.142 11.358h3.413v1.001h-3.413z" transform="matrix(.702 -.713 .713 .702 7.017 40.477)"/><path d="m11.359 10.445h.999v3.415h-.999z" transform="matrix(.702 -.712 .712 .702 -5.121 12.072)"/><path d="m51.639 50.141h.999v3.412h-.999z" transform="matrix(.702 -.712 .712 .702 -21.387 52.582)"/><path d="m3.219 40.413-.266-.964 3.289-.903.266.964z"/><path d="m57.563 24.018h3.412v1h-3.412z" transform="matrix(.965 -.264 .264 .965 -4.367 16.491)"/><path d="m24.02 3.026h1v3.411h-1z" transform="matrix(.964 -.265 .265 .964 -.378 6.656)"/><path d="m38.982 57.563h1v3.411h-1z" transform="matrix(.964 -.265 .265 .964 -14.274 12.558)"/><path d="m23.064 58.833h3.412v1h-3.412z" transform="matrix(.255 -.967 .967 .255 -38.917 68.159)"/><path d="m37.522 4.165h3.413v1h-3.413z" transform="matrix(.257 -.967 .967 .257 24.648 41.381)"/><path d="m4.165 23.061h1v3.414h-1z" transform="matrix(.257 -.967 .967 .257 -20.47 22.919)"/><path d="m58.834 37.519h1v3.415h-1z" transform="matrix(.256 -.967 .967 .256 6.227 86.543)"/><path d="m10.447 51.638h3.411v1.001h-3.411z" transform="matrix(.702 -.713 .713 .702 -33.521 24.21)"/><path d="m50.142 11.358h3.413v1.001h-3.413z" transform="matrix(.702 -.713 .713 .702 7.017 40.477)"/><path d="m11.359 10.445h.999v3.415h-.999z" transform="matrix(.702 -.712 .712 .702 -5.121 12.072)"/><path d="m51.639 50.141h.999v3.412h-.999z" transform="matrix(.702 -.712 .712 .702 -21.387 52.582)"/><path d="m3.219 40.413-.266-.964 3.289-.903.266.964z"/><path d="m57.563 24.018h3.412v1h-3.412z" transform="matrix(.965 -.264 .264 .965 -4.367 16.491)"/><path d="m24.02 3.026h1v3.411h-1z" transform="matrix(.964 -.265 .265 .964 -.378 6.656)"/><path d="m38.982 57.563h1v3.411h-1z" transform="matrix(.964 -.265 .265 .964 -14.274 12.558)"/></g></svg>