<svg enable-background="new 0 0 64 64" height="512" viewBox="0 0 64 64" width="512" xmlns="http://www.w3.org/2000/svg"><g fill="#f8f3f3"><path d="m38.825 43.989h-25.661v-2h25.661c1.536 0 2.787-1.25 2.787-2.788 0-1.537-1.251-2.787-2.787-2.787-1.537 0-2.788 1.25-2.788 2.787h-2c0-2.64 2.148-4.787 4.788-4.787s4.787 2.147 4.787 4.787-2.147 4.788-4.787 4.788z"/><path d="m51.643 48.631h-44.073v-2h44.072c1.537 0 2.787-1.25 2.787-2.788 0-1.537-1.25-2.787-2.787-2.787s-2.787 1.25-2.787 2.787h-2c0-2.64 2.148-4.787 4.787-4.787 2.641 0 4.787 2.147 4.787 4.787.001 2.64-2.146 4.788-4.786 4.788z"/><path d="m46.373 60.812c-2.641 0-4.788-2.147-4.788-4.787h2c0 1.537 1.251 2.787 2.788 2.787 1.536 0 2.787-1.25 2.787-2.787s-1.251-2.788-2.787-2.788h-32.578v-2h32.578c2.639 0 4.787 2.148 4.787 4.788 0 2.639-2.148 4.787-4.787 4.787z"/></g><path d="m38.825 44.489h-25.661c-.276 0-.5-.224-.5-.5v-2c0-.276.224-.5.5-.5h25.661c1.261 0 2.287-1.026 2.287-2.288s-1.026-2.287-2.287-2.287c-1.262 0-2.288 1.026-2.288 2.287 0 .276-.224.5-.5.5h-2c-.276 0-.5-.224-.5-.5 0-2.916 2.372-5.287 5.288-5.287 2.915 0 5.287 2.372 5.287 5.287s-2.372 5.288-5.287 5.288zm-25.161-1h25.161c2.364 0 4.287-1.923 4.287-4.288 0-2.364-1.923-4.287-4.287-4.287-2.195 0-4.011 1.658-4.259 3.787h1.009c.241-1.576 1.606-2.787 3.25-2.787 1.813 0 3.287 1.475 3.287 3.287 0 1.813-1.475 3.288-3.287 3.288h-25.161z" fill="#63312d"/><path d="m51.643 49.131h-44.073c-.276 0-.5-.224-.5-.5v-2c0-.276.224-.5.5-.5h44.072c1.261 0 2.287-1.026 2.287-2.288s-1.026-2.287-2.287-2.287-2.287 1.026-2.287 2.287c0 .276-.224.5-.5.5h-2c-.276 0-.5-.224-.5-.5 0-2.916 2.372-5.287 5.287-5.287s5.287 2.372 5.287 5.287-2.371 5.288-5.286 5.288zm-43.573-1h43.572c2.364 0 4.287-1.923 4.287-4.288 0-2.364-1.923-4.287-4.287-4.287-2.194 0-4.01 1.658-4.258 3.787h1.009c.241-1.576 1.606-2.787 3.249-2.787 1.813 0 3.287 1.475 3.287 3.287 0 1.813-1.475 3.288-3.287 3.288h-43.572z" fill="#63312d"/><path d="m46.373 61.312c-2.916 0-5.288-2.372-5.288-5.287 0-.276.224-.5.5-.5h2c.276 0 .5.224.5.5 0 1.261 1.026 2.287 2.288 2.287 1.261 0 2.287-1.026 2.287-2.287s-1.026-2.288-2.287-2.288h-32.578c-.276 0-.5-.224-.5-.5v-2c0-.276.224-.5.5-.5h32.578c2.915 0 5.287 2.372 5.287 5.288s-2.372 5.287-5.287 5.287zm-4.259-4.788c.248 2.129 2.063 3.787 4.259 3.787 2.364 0 4.287-1.923 4.287-4.287s-1.923-4.288-4.287-4.288h-32.078v1h32.078c1.813 0 3.287 1.475 3.287 3.288s-1.475 3.287-3.287 3.287c-1.644 0-3.009-1.211-3.25-2.787z" fill="#63312d"/><path d="m52.264 14.922h-2.329c.005-.13.015-.26.015-.392 0-6.247-5.065-11.312-11.313-11.312h-6.137v1.816c-3.068 1.989-5.117 5.42-5.172 9.336-.851-1.129-2.197-1.861-3.72-1.861h-6.038v5.25c-.37-.06-.748-.099-1.135-.099-3.96 0-7.172 3.211-7.172 7.172s3.212 7.172 7.172 7.172h35.828c4.716 0 8.541-3.824 8.541-8.541.001-4.717-3.825-8.541-8.54-8.541z" fill="#d1d1d1"/><path d="m52.264 32.504h-35.828c-4.23 0-7.672-3.441-7.672-7.672s3.441-7.672 7.672-7.672c.206 0 .416.01.635.03v-4.681c0-.276.224-.5.5-.5h6.038c1.226 0 2.378.424 3.293 1.19.384-3.403 2.232-6.481 5.098-8.433v-1.548c0-.276.224-.5.5-.5h6.137c6.478 0 11.754 5.24 11.812 11.704h1.815c4.985 0 9.041 4.056 9.041 9.041s-4.056 9.041-9.041 9.041zm-35.828-14.344c-3.679 0-6.672 2.993-6.672 6.672s2.993 6.672 6.672 6.672h35.828c4.434 0 8.041-3.607 8.041-8.041s-3.607-8.041-8.041-8.041h-2.329c-.136 0-.266-.055-.36-.153s-.145-.229-.14-.365l.007-.136c.004-.079.008-.157.008-.237 0-5.962-4.851-10.812-10.813-10.812h-5.637v1.316c0 .169-.086.328-.229.419-3.045 1.974-4.893 5.31-4.943 8.924-.003.214-.142.402-.345.468-.202.067-.426-.003-.555-.174-.796-1.056-2.006-1.662-3.32-1.662h-5.538v4.75c0 .146-.064.286-.176.381s-.26.136-.404.113c-.382-.064-.727-.094-1.054-.094z" fill="#63312d"/><path d="m46.264 14.922c-.813 0-1.596.121-2.341.333.015-.24.026-.48.026-.724 0-6.247-5.065-11.312-11.313-11.312-6.193 0-11.223 4.979-11.309 11.152-.851-1.129-2.197-1.861-3.72-1.861-2.575 0-4.662 2.087-4.662 4.662 0 .34.038.67.107.989-.811-.319-1.692-.5-2.618-.5-3.96 0-7.172 3.211-7.172 7.172s3.212 7.172 7.172 7.172h35.828c4.716 0 8.541-3.824 8.541-8.541.002-4.718-3.824-8.542-8.539-8.542z" fill="#f8f3f3"/><path d="m46.264 32.504h-35.828c-4.23 0-7.672-3.441-7.672-7.672s3.441-7.672 7.672-7.672c.684 0 1.358.092 2.018.273-.005-.087-.007-.175-.007-.262 0-2.846 2.315-5.162 5.162-5.162 1.226 0 2.378.424 3.294 1.19.667-5.877 5.705-10.481 11.734-10.481 6.514 0 11.813 5.299 11.813 11.812v.08c.604-.125 1.212-.188 1.814-.188 4.985 0 9.041 4.056 9.041 9.041s-4.056 9.041-9.041 9.041zm-35.828-14.344c-3.679 0-6.672 2.993-6.672 6.672s2.993 6.672 6.672 6.672h35.828c4.434 0 8.041-3.607 8.041-8.041s-3.607-8.041-8.041-8.041c-.731 0-1.473.105-2.204.313-.155.043-.324.011-.45-.091s-.195-.258-.186-.42c.014-.23.025-.46.025-.694 0-5.962-4.851-10.812-10.813-10.812-5.878 0-10.727 4.782-10.809 10.659-.003.214-.142.402-.345.468-.202.067-.426-.003-.555-.174-.796-1.056-2.006-1.662-3.32-1.662-2.295 0-4.162 1.867-4.162 4.162 0 .292.032.59.096.883.039.18-.023.367-.164.487-.14.119-.337.152-.507.084-.784-.308-1.603-.465-2.434-.465z" fill="#63312d"/></svg>